<svg xmlns="http://www.w3.org/2000/svg" xmlns:xlink="http://www.w3.org/1999/xlink" width="590.08" height="333.51" viewBox="0 0 590.08 333.51"><defs><style>.a{fill:none;}.b{clip-path:url(#a);}.c{fill:#e1cca1;fill-rule:evenodd;}.d{clip-path:url(#b);}.e{fill:#e4f4fd;}.f{fill:#83e5c7;}.g{fill:#8f9e9c;}.h{fill:#c5a272;}.i{fill:#7d7a71;}.j{fill:#d38552;}.k{fill:#bd694e;}.l{fill:#62bc83;}.m{fill:#358972;}.n{fill:#41aa8a;}.o{fill:#ff9e0d;}.p{fill:#ff7d5a;}.q{fill:#49ba99;}.r{fill:#4ec8a5;}.s{fill:#3c9d82;}.t{fill:#41ac8d;}.u{fill:#cee9e9;}.v{fill:#e64d11;}.w{fill:#f67a15;}.x{fill:#525252;}.y{fill:#ffe45c;}.z{fill:#79d4b4;}</style><clipPath id="a"><rect class="a" x="631.96" y="-14.41" width="705.4" height="362.33" rx="81.72"/></clipPath><clipPath id="b"><rect class="a" x="-26.97" y="-20.17" width="636.18" height="369.47"/></clipPath></defs><title>School</title><g class="b"><path class="c" d="M1376.48,292c.42-8.73-10-15.9-22.58-15.9H1162.46c-21.55,0-43.28-1.52-64.84-2-128.24-2.7-256.24,6.45-384.55,4.41-74.25-1.18-150.2-5.35-224.33-1.16,0,0,10.8,12.47,55.86,22.9a104.56,104.56,0,0,1,29.54,11.45c8.92,5.28,24.88,11.52,50.83,11.88,0,0,45.41,0,59.31,16.06a70.15,70.15,0,0,0,6.65,3.93h575.18a60.74,60.74,0,0,0,21.46-16.13s10.19-11.56,43.55-14.13C1331.12,313.38,1375.52,312.08,1376.48,292Z"/></g><g class="d"><rect class="e" x="-15.13" y="-18.46" width="624.33" height="367.76"/><rect class="f" x="-353.8" y="-102.73" width="1042.97" height="482.3"/><rect class="g" x="71.02" y="264.11" width="9.39" height="12.36"/><path class="h" d="M68.23,263.41a5.34,5.34,0,0,1-4.62-2.59,5.77,5.77,0,0,1-.07-5.72l3.2-5.8.13-.25c1.39-2.51,3.48-6.3,3.65-6.62a5.36,5.36,0,0,1,9.85.18c.29.57,3.08,5.11,4.42,7.3,2.65,4.32,3,5,3.23,5.36a5.74,5.74,0,0,1-.27,5.61,5.44,5.44,0,0,1-4.59,2.53Z"/><path class="i" d="M75.44,242.5a3,3,0,0,1,2.63,1.84c.23.48,2.55,4.27,4.09,6.78,2.1,3.42,2.69,4.38,2.81,4.64a3.16,3.16,0,0,1-.12,3.09,2.86,2.86,0,0,1-2.42,1.34H69a2.79,2.79,0,0,1-2.41-1.35,3.17,3.17,0,0,1,0-3.14c.23-.43,1.57-2.86,3-5.44s3.19-5.78,3.32-6a3,3,0,0,1,2.59-1.73m0-5.49a7.79,7.79,0,0,0-6.93,4.39c-.2.39-2.24,4.09-3.6,6.54l-.11.21L61.54,254a8,8,0,0,0,.13,8,7.56,7.56,0,0,0,6.56,3.7H83.16a7.65,7.65,0,0,0,6.5-3.59,8.07,8.07,0,0,0,.42-7.79c-.25-.51-.56-1-3.35-5.58-1.29-2.1-3.92-6.38-4.34-7.15a7.79,7.79,0,0,0-7-4.56Z"/><path class="j" d="M371.09,100.16c.25.82-7.3,1.12-12.33.88h0c-5,.23-11.74,0-11.55-.75.64-2.44,4.63-16.23,6.19-21.62a3.34,3.34,0,0,1,3.18-2.43h5.1a3.33,3.33,0,0,1,3.17,2.43C366.35,84,370.24,97.42,371.09,100.16Z"/><path class="k" d="M375.41,103.79c-.18,1.4-1.3,1.46-2.05,1.51-.15,0-14.2.18-22.41.18-3.12,0-5.39,0-5.76-.09a2.06,2.06,0,0,1-1.79-1.9c0-.82,0-1.64,0-2.53A2,2,0,0,1,345.47,99c1.39-.1,27.65.09,27.82.1a2,2,0,0,1,2.09,1.9A16.1,16.1,0,0,1,375.41,103.79Z"/><path class="l" d="M440.9,253.06a1.44,1.44,0,0,1-.39.82,3.27,3.27,0,0,1-.81.53l-1.5.8a18.88,18.88,0,0,0-2.54,1.72,22.77,22.77,0,0,0-2.26,2.13c-.36.37-.67.81-1,1.18a34.69,34.69,0,0,0-2.61,3.48,31.88,31.88,0,0,0-2,3.48H374.91c-.07-.61-.21-1.2-.31-1.84s-.39-1.46-.61-2.21a19.37,19.37,0,0,0-4.06-6.56c-.86-1.06-1.91-1.93-2.87-3-.43-.42-.84-.88-1.27-1.34-.26-.27-.71-.52-.8-1.06a1.43,1.43,0,0,1,.24-1,1.26,1.26,0,0,1,.72-.55,3,3,0,0,1,1.11,0,12.19,12.19,0,0,1,2,.39,35.06,35.06,0,0,1,7.16,2.88,14.73,14.73,0,0,1,1.77,1c.77.55,1.6,1.07,2.35,1.7s1.52,1.28,2.22,2l.43.46a1.06,1.06,0,0,0,0-.19c-.22-1-.37-2-.65-3a46,46,0,0,0-3.57-9.26c-.71-1.51-1.57-2.94-2.29-4.51-.32-.64-.62-1.29-.93-1.95-.18-.42-.59-.88-.52-1.45a1.31,1.31,0,0,1,.57-.83,1.25,1.25,0,0,1,.93-.19,3.71,3.71,0,0,1,1.15.52,15.06,15.06,0,0,1,1.94,1.32,68.4,68.4,0,0,1,6.51,5.74c.52.52,1.08,1,1.56,1.56l2.06,2.38,1.94,2.51c.56.76,1.08,1.55,1.62,2.34.53-1.72,1.13-3.43,1.82-5.1.24-.58.49-1.15.76-1.72s.52-1.13.81-1.68a44.11,44.11,0,0,1,3-5.11,33.61,33.61,0,0,1,3.64-4.55,23.49,23.49,0,0,1,4.23-3.63c.67-.4,1.32-.77,2-1.1.43-.2.92-.62,1.48-.53a1.2,1.2,0,0,1,.79.62,1.42,1.42,0,0,1,.17.94,3.5,3.5,0,0,1-.48,1.08c-.35.64-.71,1.27-1.1,1.86a28,28,0,0,0-3,6.94c-.17.59-.29,1.19-.42,1.78a33.05,33.05,0,0,0-.71,5,39.37,39.37,0,0,0,0,5.32c0,.5.08,1,.13,1.49l.26-.33c.72-.89,1.51-1.73,2.25-2.57a55.1,55.1,0,0,1,7.92-7.05c.7-.49,1.39-1,2.11-1.42s1.47-.83,2.23-1.19a18.61,18.61,0,0,1,2-.75c.41-.15.89-.49,1.42-.34a1.37,1.37,0,0,1,.73.68,1.46,1.46,0,0,1,.12.94,3.46,3.46,0,0,1-.51,1c-.37.59-.82,1.08-1.2,1.64-.7,1-1.43,2-2,3-.31.51-.64,1-.92,1.53l-.83,1.57c-.27.52-.49,1.07-.72,1.59a39.74,39.74,0,0,0-1.79,4.5c-.3.94-.58,1.9-.81,2.85q1.86-1.53,3.81-2.83c.9-.58,1.81-1.14,2.73-1.67a39.47,39.47,0,0,1,9.23-4,16.24,16.24,0,0,1,4.91-.64,11.77,11.77,0,0,1,2.06.31,2,2,0,0,1,1.31.54A1.42,1.42,0,0,1,440.9,253.06Z"/><path class="m" d="M199,310.31H-125.46A22.28,22.28,0,0,1-147.74,288a22.27,22.27,0,0,1,22.28-22.28H199a22.28,22.28,0,1,1,0,44.56Z"/><path class="m" d="M347.47,265.44V150h57.65a22.28,22.28,0,0,0,22.27-22.28c0-.17,0-.33,0-.49s0-.32,0-.49V-34.1a22.28,22.28,0,0,0-22.27-22.28H324.75a22.28,22.28,0,0,0-22.28,22.25l-.06,58.82H244.83A22.28,22.28,0,0,0,222.55,47V185.29H106.2V46.66A22.29,22.29,0,0,0,83.92,24.38H3.21l-1,0H-354.87V68.92h255.6v139A22.27,22.27,0,0,0-77,230.16h57.55V288A22.29,22.29,0,0,0,2.84,310.31H325.19a22.41,22.41,0,0,0,3.69-.31H686.34V265.44ZM2.84,104.84a22.28,22.28,0,0,0-22.28,22.28V185.6H-54.71V68.94H61.64v36.12l-58.71-.22ZM141.47,265.75H25.12V149.48l36.52.14v57.95a22.27,22.27,0,0,0,22.28,22.28h57.55ZM325.19,105.46a22.28,22.28,0,0,0-22.28,22.28v138H186v-35.9h58.8a22.28,22.28,0,0,0,22.28-22.28V69.25h57.55A22.27,22.27,0,0,0,346.94,47L347-11.82h35.83V105.46Z"/><circle class="n" cx="257.32" cy="287.59" r="5.73"/><circle class="n" cx="291.54" cy="287.59" r="5.73"/><circle class="n" cx="325.26" cy="287.59" r="5.73"/><circle class="n" cx="325.26" cy="256.35" r="5.73"/><circle class="n" cx="325.26" cy="226.35" r="5.73"/><circle class="n" cx="223.46" cy="287.59" r="5.73"/><circle class="n" cx="487.32" cy="287.59" r="5.73"/><circle class="n" cx="189.6" cy="287.59" r="5.73"/><circle class="n" cx="155.74" cy="287.59" r="5.73"/><circle class="n" cx="121.88" cy="287.59" r="5.73"/><circle class="n" cx="88.02" cy="287.59" r="5.73"/><circle class="n" cx="54.16" cy="287.59" r="5.73"/><circle class="n" cx="20.3" cy="287.59" r="5.73"/><circle class="n" cx="164.58" cy="242.91" r="5.73"/><circle class="n" cx="164.58" cy="207.33" r="5.73"/><circle class="n" cx="204.7" cy="207.33" r="5.73"/><circle class="n" cx="244.81" cy="207.33" r="5.73"/><circle class="n" cx="244.81" cy="46.53" r="5.73"/><circle class="n" cx="284.93" cy="46.53" r="5.73"/><circle class="n" cx="325.04" cy="46.53" r="5.73"/><circle class="n" cx="325.04" cy="8.07" r="5.73"/><circle class="n" cx="244.81" cy="86.73" r="5.73"/><circle class="n" cx="244.81" cy="126.93" r="5.73"/><circle class="n" cx="244.81" cy="167.13" r="5.73"/><path class="o" d="M513.3,258.45h28.41a3.48,3.48,0,0,1,3.48,3.48v5.31a0,0,0,0,1,0,0H509.82a0,0,0,0,1,0,0v-5.31A3.48,3.48,0,0,1,513.3,258.45Z"/><path class="o" d="M509.82,308.56h35.37a0,0,0,0,1,0,0v5.31a3.48,3.48,0,0,1-3.48,3.48H513.3a3.48,3.48,0,0,1-3.48-3.48v-5.31A0,0,0,0,1,509.82,308.56Z"/><path class="p" d="M477.94,260.58h28.41a3.48,3.48,0,0,1,3.48,3.48v5.31a0,0,0,0,1,0,0H474.46a0,0,0,0,1,0,0v-5.31a3.48,3.48,0,0,1,3.48-3.48Z"/><path class="p" d="M474.46,306h35.37a0,0,0,0,1,0,0v5.31a3.48,3.48,0,0,1-3.48,3.48H477.94a3.48,3.48,0,0,1-3.48-3.48V306A0,0,0,0,1,474.46,306Z"/><rect class="p" x="474.46" y="265.59" width="35.37" height="44.56"/><rect class="o" x="509.82" y="265.59" width="35.37" height="44.56"/><rect class="q" x="545.19" y="265.59" width="35.37" height="44.56"/><rect class="r" x="580.56" y="265.59" width="35.37" height="44.56"/><rect class="s" x="66.26" y="69.8" width="35.37" height="44.56" transform="translate(176.02 8.13) rotate(90)"/><rect class="t" x="66.26" y="105.16" width="35.37" height="44.56" transform="translate(211.38 43.5) rotate(90)"/><rect class="q" x="66.26" y="140.53" width="35.37" height="44.56" transform="translate(246.75 78.86) rotate(90)"/><path class="u" d="M313.54,163.25c-1-.77-2.11-1.51-3.2-2.21a9.76,9.76,0,0,0-4.62-1.9c-2.26-.11-4.31,1.23-6.1,2.6a65.28,65.28,0,0,0-10.83,10.51,4,4,0,0,0-1.21,2.86c.66,4.8,14.18,3.85,17.36,3.77,3.55-.1,7.73.27,11.19-1.34,2.2-1,4.08-3.09,4.17-5.52.1-2.88-2.22-5.23-4.47-7C315.08,164.4,314.32,163.81,313.54,163.25Z"/><path class="v" d="M329,170.6c0-.91.69-1.14,1.34-1.14h8.64s2.61-6.86,3.17-8.07l-17.34-.11-12,16c-.1.11-26.28-.26-27.3-.26.61,2.8,4.63,18.84,5.61,21.74.35,1,1,1.35,2.08,1.35h34.53c1,0,1.26-.63,1.26-1.84Z"/><path class="w" d="M361.86,192c-.35-1.54-7.94-20.28-8.59-21.19a3.1,3.1,0,0,0-2.53-1.67H330.19c-1.52,0-1.86.75-1.86,2.23v24.21a1.21,1.21,0,0,1-1.25,1.31l-37.23,0a1.49,1.49,0,0,0-1.51,1.49c0,.91-.2,10.21,0,11.39.13.82.58,1.08,1.47,1.08,6.72,0,54.39.15,68.94.07a3.57,3.57,0,0,0,3.54-3.57V195A14.33,14.33,0,0,0,361.86,192Z"/><path class="v" d="M298.91,210.81a7.41,7.41,0,0,1,14.77,0Zm51.61.07a7.41,7.41,0,0,0-14.77,0Z"/><path class="x" d="M355.09,211.64a11.9,11.9,0,1,1-11.9-11.9A11.9,11.9,0,0,1,355.09,211.64Z"/><path class="w" d="M341.82,158.28c-1.57-.14-16.93-.15-18.54,0a4.38,4.38,0,0,0-3,1.66c-1.19,1.58-7.4,9.9-8.61,11.51a2.24,2.24,0,0,1-2,.84c-1.45,0-24.48-.13-26.1,0a.88.88,0,0,0-.93.86,12.33,12.33,0,0,0,0,3.64c.09.5.43.67.93.69,2.94.11,27.07.2,29.3-.07a3.25,3.25,0,0,0,1.85-.72c1.47-1.21,7.28-10.82,8.72-12.23a2.68,2.68,0,0,1,2.11-.93c1.65.07,14.2,0,15.57,0,.78-1.54,1.42-2.69,1.73-3.39C343.37,159.12,343,158.39,341.82,158.28Z"/><path class="x" d="M318.23,211.64a11.9,11.9,0,1,1-11.9-11.9A11.9,11.9,0,0,1,318.23,211.64Z"/><path class="u" d="M306.33,216.34a4.7,4.7,0,1,1,4.7-4.7A4.7,4.7,0,0,1,306.33,216.34Z"/><path class="u" d="M343.19,216.34a4.7,4.7,0,1,1,4.69-4.7A4.71,4.71,0,0,1,343.19,216.34Z"/><path class="y" d="M338.91,192.53h-2.86a.76.76,0,0,1-.74-.73c-.06-2.94-.12-12.68-.14-15.43a.75.75,0,0,1,.73-.75c1.73,0,5.48-.08,8.39-.08,2.56,0,3,0,3.11.05a1.25,1.25,0,0,1,.65.57c.56,1,4.65,11.43,6.06,15.29a.73.73,0,0,1-.68,1C350.42,192.48,343.31,192.53,338.91,192.53Z"/><path class="j" d="M160.72,170.17c-.56.66,6.28,3.87,11,5.6l0,0c4.49,2.14,10.82,4.53,10.93,3.79.37-2.49,2.05-16.75,2.7-22.32a3.35,3.35,0,0,0-2-3.48l-4.71-2a3.33,3.33,0,0,0-3.86,1C171.37,157.1,162.56,168,160.72,170.17Z"/><path class="k" d="M155.32,171.83c-.37,1.36.64,1.86,1.31,2.19.85.43,12.24,5.37,19.65,8.49,3.35,1.41,5.89,2.45,6.27,2.54a2,2,0,0,0,2.39-1.05c.34-.74.66-1.51,1-2.34a2,2,0,0,0-1.16-2.59c-1.23-.62-25.5-10.65-25.67-10.72a2,2,0,0,0-2.66.94A17.83,17.83,0,0,0,155.32,171.83Z"/><path class="z" d="M158.2,163.15c0,.35.11.84.45.77.17,0,.27-.21.35-.37,1.68-3.47,3.75-7,7.13-9.07a1.38,1.38,0,0,0,.59-.5.49.49,0,0,0-.15-.68.7.7,0,0,0-.45,0A11,11,0,0,0,158.2,163.15Z"/><path class="z" d="M154.58,156.87l.54.18c-.23-.08,4.45-4.85,4.7-5.18C157.28,150.2,154.84,155,154.58,156.87Z"/><rect class="a" x="128.69" y="0.41" width="332.69" height="332.69" rx="53.78"/></g></svg>