<svg xmlns="http://www.w3.org/2000/svg" width="590.08" height="333.51" viewBox="0 0 590.08 333.51"><defs><style>.a{fill:#f7dbbf;}.b{fill:#fff;}.c{font-size:13.11px;fill:#51453e;font-family:VAGRoundedStd-Bold, VAG Rounded Std;font-weight:700;}.d,.i{fill:#85c6ff;}.e,.h{fill:#4fadff;}.e,.i,.z{fill-rule:evenodd;}.f{fill:#e1e3ce;}.g{fill:#d0d1be;}.j{letter-spacing:-0.08em;}.k{fill:#efa0d7;}.l{fill:#68427a;}.m{fill:#e22323;}.n{fill:#482e1f;}.o{fill:#c4eaff;}.p{fill:#a1d3ff;}.q{fill:#3798c9;}.r{fill:#1e80b3;}.s{fill:#ff6440;}.t{fill:#fc8c1d;}.u{fill:#f4b62a;}.v{fill:#b5c614;}.w{fill:#5cb3d2;}.x{fill:#6c8ad1;}.y{fill:#a67bd1;}.z{fill:#d6edea;}</style></defs><title>School</title><rect class="a" x="-4.01" y="-2.68" width="598.11" height="338.87"/><rect class="b" x="135.62" y="32" width="318.85" height="256.8" rx="19.37"/><text class="c" transform="translate(164.77 84.32)">She tries to catch the rainbow with a </text><rect class="d" x="300.04" y="116.73" width="124.38" height="122.12" rx="7.72"/><path class="e" d="M416.71,116.73H307.76a7.72,7.72,0,0,0-7.72,7.72v4.76a7.72,7.72,0,0,1,7.72-7.72h109a7.72,7.72,0,0,1,7.72,7.72v-4.76A7.72,7.72,0,0,0,416.71,116.73Z"/><path class="f" d="M375.72,206.88h0a0,0,0,0,1,0,0V348a0,0,0,0,1,0,0h0a22.27,22.27,0,0,1-22.27-22.27V229.16A22.27,22.27,0,0,1,375.72,206.88Z" transform="translate(642.03 -87.14) rotate(90)"/><rect class="g" x="299.73" y="267.3" width="123.13" height="5.06"/><path class="d" d="M316.72,309.94h0a16.91,16.91,0,0,0,22.44-8.24l18.31-39.61-37.46.34L308.47,287.5A16.9,16.9,0,0,0,316.72,309.94Z"/><polygon class="h" points="315.39 272.36 352.68 272.36 356.19 264.78 318.89 264.78 315.39 272.36"/><path class="b" d="M285.86,258.38H438.62V288.8H426.23c-3.51,0-4.54-2.07-5.32-5.13a21.18,21.18,0,0,0-4-8,20.68,20.68,0,0,0-16-7.69H322.59a20.6,20.6,0,0,0-14.84,6.37,20.89,20.89,0,0,0-4.42,7c-1.18,3.11-.52,7.19-4.8,7.45H285.86Z"/><path class="e" d="M412.93,69.27a39.09,39.09,0,0,0-8.94-.65h-.65a86.77,86.77,0,0,0-13.17.65c-6.52,1.06-11.13,3.82-11.13,11s4.61,10,11.13,11a86.77,86.77,0,0,0,13.17.65H404a39.09,39.09,0,0,0,8.94-.65c6.52-1.06,11.14-3.82,11.14-11S419.45,70.33,412.93,69.27Z"/><path class="i" d="M390.17,91.83a85.43,85.43,0,0,0,13.17.66H404a38.49,38.49,0,0,0,8.94-.66c4.91-.79,8.73-2.56,10.32-6.47a7.67,7.67,0,0,0,0-5.71c-1.59-3.92-5.42-5.69-10.33-6.49a39.09,39.09,0,0,0-8.94-.65h-.65a86.77,86.77,0,0,0-13.17.65c-5.49.89-9.62,3-10.79,8a6.08,6.08,0,0,0,0,2.75C380.55,88.83,384.68,90.94,390.17,91.83Z"/><text class="c" transform="translate(394.61 85.18)">ja<tspan class="j" x="10.43" y="0">r</tspan><tspan x="13.75" y="0">.</tspan></text><path class="k" d="M328.17,233a53.38,53.38,0,0,1-4.29-4.46c.71-1.39,5.23-7.61,8.94-7.71,1.34,1.12,2.15,2.29,4.06,4A20.72,20.72,0,0,0,328.17,233Z"/><path class="l" d="M326.1,234.51c-.62-.56-5-5.19-5.59-5.87-.26-.31-.35-.42,0-.83a10.35,10.35,0,0,1,1.18-1.13.51.51,0,0,1,.79,0c.46.43,4.8,5,5.84,6.1a14.71,14.71,0,0,1-1.21,1.69C326.69,234.84,326.5,234.87,326.1,234.51Z"/><path class="k" d="M343.59,236.2a53.69,53.69,0,0,1-6.18-.06c-.5-1.49-1.83-7.68.7-10.41,1.74-.16,3.4-.3,6-.46A17.83,17.83,0,0,0,343.59,236.2Z"/><path class="l" d="M343.21,238.73c-.83.05-7.22-.06-8.11-.12-.4,0-.54-.05-.59-.59a11,11,0,0,1,0-1.63.51.51,0,0,1,.57-.54c.64,0,6.91.05,8.45.11a14.83,14.83,0,0,1,.36,2C343.86,238.54,343.74,238.7,343.21,238.73Z"/><path class="l" d="M315.17,201.88a4.45,4.45,0,0,0,4.79.23c2.51-1.69,6.67-12.19,8.68-15l24.42,2.34c1.43,3.14,3.52,14.24,5.67,16.37a4.44,4.44,0,0,0,4.75.68c.47-.28.59.18.41.89-2,7.83-9.62,9.16-16.46,8.92-.8,0-17.95-1.68-18.91-1.84-6.6-1.13-13.47-3.95-13.93-11.8C314.55,201.93,314.76,201.51,315.17,201.88Z"/><path class="k" d="M335.53,206.71c-4.25-1.41-14.44.92-19.08,5.61-2.44,2.46.59,5.19,2.72,3.69,1.84-1.3,8.09-4.68,13.21-4.6C333.23,210.08,334.69,207.91,335.53,206.71Z"/><path class="k" d="M344.38,212.77c5.29.36,12-2.15,15.17-7.93,1.67-3-2.25-4.49-3.63-2.8S350,208,344.54,207.12C344.47,209.07,344.86,211.39,344.38,212.77Z"/><path class="m" d="M325.06,222.28c.62-1.71,7-9.43,7.75-18.41l13.34,1c3.13,7.79,3.69,16.72,2.91,21.52-.09.51-.06,1.14-.73,1.2-5.34.46-18.66-2.7-22.61-4.29C325.1,223.1,324.89,222.77,325.06,222.28Z"/><path class="k" d="M330.56,187.09l10.21.95,10.22,1c-.24,6.84,3.46,19.59-12,18.11S329.58,193.4,330.56,187.09Z"/><path class="n" d="M335.66,199.06a.49.49,0,0,1,.5-.57l3.61.35c2.18.2,3.3.21,3.66.29a.46.46,0,0,1,.24.67,3.91,3.91,0,0,1-4.25,2.64A4.08,4.08,0,0,1,335.66,199.06Z"/><path class="n" d="M331.93,194.11a1.94,1.94,0,1,0,2.11-1.75A1.94,1.94,0,0,0,331.93,194.11Z"/><path class="n" d="M344.52,195.31a1.94,1.94,0,1,0,2.12-1.74A1.93,1.93,0,0,0,344.52,195.31Z"/><path class="m" d="M328,188.05c1.6-3.31,12.48-24.42,14.28-27.3a1.27,1.27,0,0,1,2.32.22c1.23,3.17,7.9,26,8.84,29.52C353.53,190.78,327.89,188.32,328,188.05Z"/><path class="b" d="M350.28,195.15a3.72,3.72,0,1,1-3.29-4.09A3.72,3.72,0,0,1,350.28,195.15Z"/><path class="n" d="M346.92,193.13a1.56,1.56,0,1,1-1.38-1.73A1.57,1.57,0,0,1,346.92,193.13Z"/><path class="b" d="M337.54,193.75a3.71,3.71,0,1,1-3.29-4.09A3.72,3.72,0,0,1,337.54,193.75Z"/><path class="n" d="M334.18,191.73a1.55,1.55,0,0,1-1.72,1.38,1.56,1.56,0,1,1,1.72-1.38Z"/><path class="o" d="M384.47,190.37a7.74,7.74,0,0,0-2.61-8.72h0c.47-1.06.92-2.27,1.18-3a.78.78,0,0,0-.44-1c-6-2.45-10.78-4.18-12.49-4.78a.76.76,0,0,0-1,.42c-.25.6-.65,1.61-1.12,3h0a7.75,7.75,0,0,0-7.8,4.82,181.44,181.44,0,0,0-5.95,18.45,4.8,4.8,0,0,0,2.92,5.73l13.27,5.08a4.81,4.81,0,0,0,6-2.22A137.76,137.76,0,0,0,384.47,190.37Z"/><path class="p" d="M370,179.39a.36.36,0,0,1-.37.24l-1.1-.12c-2.34-.19-5,1-5.89,3.14a168.07,168.07,0,0,0-5.47,16.95,2.61,2.61,0,0,0,1.59,3.11l12.34,4.73a2.61,2.61,0,0,0,3.23-1.2,125.09,125.09,0,0,0,7.3-16.38,5.78,5.78,0,0,0-2.14-6.2l-.81-.58a.36.36,0,0,1-.12-.42c.5-1.27.82-2.18,1-2.6a.3.3,0,0,0-.17-.37c-1.49-.59-2.72-1-4.27-1.61-1.75-.68-2.79-1.07-3.79-1.43a.28.28,0,0,0-.37.17C370.77,177.28,370.39,178.29,370,179.39Z"/><path class="o" d="M368.5,181.31a3.68,3.68,0,0,0-4.78,2.08c-.3.59-.85,1.63-.32,2.23.76.88,1.66-.45,2-1,0,0,.9-1.51,2-1.49a2,2,0,0,0,.84-.12,1.5,1.5,0,0,0,.82-.66A.77.77,0,0,0,368.5,181.31Z"/><path class="o" d="M369.66,179.63a24.67,24.67,0,0,1,9,3.45l2.91-3.51-11.15-5.19Z"/><path class="q" d="M383.92,175.25a1.77,1.77,0,0,1,.92,2c-.27.81-.92,2.56-1.23,3.24a1.68,1.68,0,0,1-2.05.92c-.88-.29-12.18-4.57-12.95-4.92a1.7,1.7,0,0,1-.92-2.05c.2-.67.89-2.46,1.23-3.24a1.69,1.69,0,0,1,2.05-.91C371.8,170.6,383.23,174.94,383.92,175.25Z"/><path class="r" d="M376.91,172.55l1,.39-2.38,6.27-1-.39Zm2,7.92,1,.39,2.37-6.24-1-.4Zm-8.75-3.33,1,.4,2.38-6.25-1-.39Z"/><path class="s" d="M278.55,208.31a79.54,79.54,0,0,0-3-21.25c-.27-.91-.52-1.81-.83-2.72l-1-2.71c-.17-.46-.32-.91-.53-1.36l-.6-1.34-.61-1.35c-.21-.44-.4-.89-.65-1.33-.47-.88-.94-1.76-1.43-2.64-.23-.44-.5-.86-.77-1.29l-.81-1.28-.83-1.28-.9-1.23-.92-1.23-.46-.61-.49-.59a53,53,0,0,0-8.83-8.56,55.9,55.9,0,0,0-10.37-6.31,56.52,56.52,0,0,0-23.4-5.31,57.9,57.9,0,0,0-11.9,1.13c-1,.17-1.95.42-2.92.66-.48.12-1,.24-1.44.38l-1.43.43L203,149l-1.41.51-1.39.53c-.47.17-.94.39-1.41.59l-1.41.62c-.47.21-.94.42-1.4.67-.92.48-1.84,1-2.76,1.46s-1.8,1.1-2.69,1.67-1.74,1.22-2.6,1.84a51,51,0,0,0-9.09,8.88,54.89,54.89,0,0,0-6.48,10.44,61.2,61.2,0,0,0-4,10.93,71.31,71.31,0,0,0-2,10.93c-.19,1.82-.31,3.64-.36,5.49,0,.92,0,1.86,0,2.82,0,.49,0,1,0,1.49l0,.8,0,.45.05.64-6.88.62-.07-.79,0-.53,0-.48,0-.43c0-.6,0-1.12,0-1.67,0-1.06,0-2.09,0-3.11.06-2,.19-4,.39-6a79.84,79.84,0,0,1,2.15-12,68,68,0,0,1,4.41-12.15,61.41,61.41,0,0,1,7.31-11.77,57.53,57.53,0,0,1,10.34-10.1c1-.71,2-1.44,3-2.09s2-1.27,3.05-1.89,2.08-1.12,3.12-1.66c.53-.28,1-.51,1.58-.75l1.59-.7c.52-.23,1.06-.48,1.58-.67l1.57-.59,1.57-.56,1.59-.5,1.6-.49c.53-.15,1.07-.28,1.61-.42,1.09-.27,2.17-.54,3.26-.74A64.75,64.75,0,0,1,222.14,139a63.45,63.45,0,0,1,26.26,6,62.76,62.76,0,0,1,11.66,7.1,60.1,60.1,0,0,1,9.95,9.64l.56.67.52.68,1,1.39,1,1.39.92,1.43.92,1.44c.3.48.61,1,.87,1.46.54,1,1.07,2,1.59,3,.28.49.5,1,.73,1.49l.68,1.5.67,1.5c.23.5.4,1,.59,1.5.38,1,.75,2,1.12,3s.62,2,.92,3a86.74,86.74,0,0,1,3.31,23.09Z"/><path class="t" d="M271.83,208.41a72.83,72.83,0,0,0-2.77-19.47c-.25-.81-.47-1.63-.75-2.44l-.89-2.43c-.16-.4-.29-.81-.48-1.21l-.53-1.19-.55-1.19c-.18-.4-.35-.8-.57-1.19L264,177c-.2-.39-.45-.76-.68-1.14l-.72-1.12-.72-1.13-.8-1.08-.8-1.08-.4-.54-.44-.51a45.66,45.66,0,0,0-7.73-7.49,48.63,48.63,0,0,0-9.12-5.55A49.72,49.72,0,0,0,222,152.64a51.62,51.62,0,0,0-10.53,1c-.86.15-1.72.37-2.57.58-.43.11-.86.21-1.28.33l-1.26.39-1.27.39-1.24.45-1.23.46c-.41.15-.83.35-1.24.53a43.65,43.65,0,0,0-17.32,13.14,47.31,47.31,0,0,0-5.68,9.15,53.82,53.82,0,0,0-3.53,9.75,64.28,64.28,0,0,0-1.77,9.9c-.18,1.65-.29,3.31-.33,5,0,.84,0,1.68,0,2.54,0,.44,0,.86,0,1.32l0,.69,0,.38,0,.49-6.88.62-.05-.65,0-.45,0-.8c0-.53,0-1,0-1.5,0-1,0-1.9,0-2.83.05-1.85.17-3.67.36-5.5a71.9,71.9,0,0,1,2-11,61.58,61.58,0,0,1,4-11,54.78,54.78,0,0,1,6.5-10.48,51.09,51.09,0,0,1,9.13-8.92c.86-.62,1.72-1.26,2.61-1.84s1.79-1.13,2.7-1.67,1.84-1,2.77-1.48c.46-.25.93-.45,1.4-.66l1.41-.63c.47-.2,1-.42,1.41-.59l1.41-.53,1.4-.51,1.43-.44,1.44-.44c.48-.14,1-.25,1.45-.38,1-.24,1.94-.49,2.92-.66a57.62,57.62,0,0,1,12-1.13,56.74,56.74,0,0,1,23.47,5.33A56,56,0,0,1,256,157.39a53.27,53.27,0,0,1,8.86,8.58l.49.6.47.61.91,1.23.91,1.24.83,1.28.81,1.29c.27.43.55.86.78,1.3.49.88,1,1.76,1.43,2.64.25.44.44.89.65,1.34l.62,1.35.6,1.35c.21.45.36.9.53,1.36l1,2.72c.31.91.56,1.82.84,2.73a79.9,79.9,0,0,1,3,21.3Z"/><path class="u" d="M265.11,208.51a66.11,66.11,0,0,0-2.5-17.69c-.22-.72-.42-1.45-.66-2.17l-.79-2.13c-.14-.36-.26-.72-.42-1.07l-.47-1-.47-1c-.16-.35-.31-.7-.5-1l-1.1-2a8.91,8.91,0,0,0-.59-1l-.62-1-.62-1-.68-.93-.69-.92-.35-.47-.37-.44a39.61,39.61,0,0,0-6.64-6.43,41.85,41.85,0,0,0-7.87-4.78,43,43,0,0,0-17.83-4A44.56,44.56,0,0,0,204,163a36.89,36.89,0,0,0-14.71,11.14,44.08,44.08,0,0,0-8,16.42,57.41,57.41,0,0,0-1.59,8.88c-.15,1.49-.25,3-.29,4.49,0,.75,0,1.5,0,2.26,0,.38,0,.76,0,1.15l0,.58,0,.64-6.89.63,0-.5,0-.38,0-.69c0-.46,0-.89,0-1.33,0-.86,0-1.71,0-2.55,0-1.68.15-3.34.32-5a65.92,65.92,0,0,1,1.78-9.93,54.56,54.56,0,0,1,3.55-9.79,47.44,47.44,0,0,1,5.7-9.18,44,44,0,0,1,17.4-13.2c.41-.17.82-.37,1.24-.52l1.24-.47,1.24-.45,1.27-.39,1.27-.39c.42-.13.85-.22,1.28-.33.86-.21,1.71-.44,2.59-.59a51.91,51.91,0,0,1,10.56-1,49.91,49.91,0,0,1,20.69,4.7,48.71,48.71,0,0,1,9.16,5.57,45.64,45.64,0,0,1,7.76,7.52l.44.51.4.54.81,1.09.8,1.08.72,1.13.72,1.13c.24.38.48.76.69,1.15l1.26,2.34c.22.38.39.79.58,1.18l.54,1.2.54,1.2c.18.4.32.81.47,1.21l.91,2.44c.27.81.5,1.63.75,2.45A73.18,73.18,0,0,1,272,208.41Z"/><path class="v" d="M258.39,208.61a59.68,59.68,0,0,0-2.23-15.9c-.19-.63-.36-1.28-.58-1.9L254.9,189c-.12-.3-.22-.62-.36-.91l-.4-.9-.41-.89a8.89,8.89,0,0,0-.42-.88l-.93-1.71c-.15-.3-.33-.56-.5-.84l-.52-.82-.52-.82-.58-.77-.58-.78-.28-.39-.32-.37a32.31,32.31,0,0,0-5.54-5.36,35.16,35.16,0,0,0-6.62-4,36.3,36.3,0,0,0-15-3.41,37.89,37.89,0,0,0-15.19,3l-.88.39a7.77,7.77,0,0,0-.87.42l-1.71.89-1.62,1c-.54.35-1,.74-1.56,1.11a30.55,30.55,0,0,0-5.45,5.33,37.39,37.39,0,0,0-6.73,13.95,51.69,51.69,0,0,0-1.4,7.84c-.14,1.33-.23,2.67-.26,4,0,.66,0,1.32,0,2,0,.33,0,.66,0,1l0,.47,0,.42-6.89.62,0-.34,0-.31,0-.58,0-1.16c0-.76,0-1.51,0-2.27,0-1.51.13-3,.29-4.5a57.79,57.79,0,0,1,1.59-8.91,48.41,48.41,0,0,1,3.12-8.6,40.81,40.81,0,0,1,4.89-7.89A37.26,37.26,0,0,1,204,162.77a44.81,44.81,0,0,1,18-3.6,43.2,43.2,0,0,1,17.91,4.06,42.3,42.3,0,0,1,7.91,4.81,39.58,39.58,0,0,1,6.67,6.46l.37.44.35.47.69.93.69.93.62,1,.63,1c.2.32.42.65.59,1l1.1,2c.19.33.34.69.5,1l.48,1,.47,1c.16.35.28.71.42,1.07l.79,2.14c.25.72.44,1.45.66,2.18a66.07,66.07,0,0,1,2.51,17.73Z"/><path class="w" d="M251.67,208.71a53.33,53.33,0,0,0-2-14.12c-.17-.54-.31-1.1-.49-1.62l-.58-1.56c-.1-.26-.18-.53-.3-.77l-.34-.74-.33-.75c-.12-.24-.22-.5-.35-.73l-.77-1.4a5.06,5.06,0,0,0-.4-.68l-.43-.67-.42-.66-.47-.63-.46-.63-.23-.31-.25-.29a25.93,25.93,0,0,0-4.45-4.31,29,29,0,0,0-5.36-3.26,29.56,29.56,0,0,0-12.28-2.78,31,31,0,0,0-6.37.61c-.53.08-1,.23-1.56.35-.26.07-.52.12-.78.2l-.77.24-.77.23-.75.28L210,175c-.25.09-.47.21-.71.31l-.71.31a7.5,7.5,0,0,0-.7.33l-1.35.71-1.27.79c-.42.27-.8.58-1.21.86a23.78,23.78,0,0,0-4.24,4.15,30.82,30.82,0,0,0-5.49,11.47,44.81,44.81,0,0,0-1.22,6.82c-.12,1.17-.2,2.34-.22,3.5,0,.57,0,1.14,0,1.7,0,.27,0,.56,0,.81l0,.36v.16s0,.11,0,0l-6.88.62,0-.42,0-.48c0-.33,0-.66,0-1,0-.67,0-1.33,0-2,0-1.33.12-2.67.26-4a52.08,52.08,0,0,1,1.4-7.87,37.7,37.7,0,0,1,6.77-14,30.22,30.22,0,0,1,5.48-5.36c.53-.37,1-.77,1.57-1.12l1.64-1,1.71-.91a8.82,8.82,0,0,1,.88-.41l.89-.39a37.9,37.9,0,0,1,15.26-3.06A36.45,36.45,0,0,1,237,169.32a36.09,36.09,0,0,1,6.65,4,33.11,33.11,0,0,1,5.57,5.4l.32.37.29.39.57.78.59.79.52.82.52.82c.18.28.36.55.51.84l.93,1.72c.16.29.29.59.43.89l.4.9.41.89c.14.3.24.62.36.92l.69,1.86c.21.62.38,1.27.57,1.9a59.31,59.31,0,0,1,2.24,15.95Z"/><path class="x" d="M245,208.8a46.68,46.68,0,0,0-1.69-12.33c-.14-.45-.26-.91-.4-1.35s-.33-.84-.48-1.27a6.62,6.62,0,0,0-.24-.62l-.27-.59-.27-.59a4.43,4.43,0,0,0-.27-.58c-.21-.37-.41-.73-.6-1.1a4.66,4.66,0,0,0-.32-.53l-.33-.51-.31-.51-.36-.47-.35-.48-.17-.24-.2-.22a19.45,19.45,0,0,0-3.35-3.25,22.17,22.17,0,0,0-4.11-2.49,22.89,22.89,0,0,0-9.5-2.15,24.65,24.65,0,0,0-5,.48c-.42.06-.82.18-1.23.28-.2.05-.41.09-.61.15l-.6.19-.61.18-.59.22-.59.22a5.67,5.67,0,0,0-.55.24l-.53.23a4.3,4.3,0,0,0-.53.25c-.32.18-.66.35-1,.52s-.61.39-.92.57-.57.42-.86.62a16.57,16.57,0,0,0-3,3,20.64,20.64,0,0,0-2.45,4,27.6,27.6,0,0,0-1.81,5,37.57,37.57,0,0,0-1,5.79c-.11,1-.17,2-.2,3,0,.5,0,1,0,1.43l0,.64v.34h0c.08,0,0,0-.6.05l-1.36.11-1.36.11c6.63-.5,1.83-.17,3.31-.29v-.1l-6.88.62c0,.08,0,0,0,0v-.15l0-.37c0-.26,0-.54,0-.81,0-.57,0-1.14,0-1.72,0-1.16.11-2.34.23-3.51a45.2,45.2,0,0,1,1.22-6.85,31,31,0,0,1,5.53-11.54,23.45,23.45,0,0,1,4.27-4.18c.41-.28.8-.6,1.22-.87s.86-.52,1.29-.8l1.35-.71a5.74,5.74,0,0,1,.71-.33l.71-.32c.24-.1.47-.22.72-.31l.76-.28.76-.28.78-.23.77-.24c.26-.08.52-.13.78-.2.52-.13,1-.28,1.58-.36a31.33,31.33,0,0,1,6.4-.61,29.63,29.63,0,0,1,12.36,2.8,28.82,28.82,0,0,1,5.4,3.28A26.18,26.18,0,0,1,244,183l.26.3.23.32.47.63.47.63.42.67.43.67a7.66,7.66,0,0,1,.41.68l.77,1.42a6.13,6.13,0,0,1,.35.73l.34.75.34.74c.12.25.2.52.3.78l.58,1.56c.18.54.32,1.09.49,1.64a52.93,52.93,0,0,1,2,14.16Z"/><path class="y" d="M238.23,208.9a40,40,0,0,0-1.42-10.55c-.12-.35-.2-.73-.32-1.07s-.25-.65-.37-1a3.41,3.41,0,0,0-.18-.48l-.21-.44-.19-.44a2.46,2.46,0,0,0-.21-.43c-.15-.26-.29-.52-.43-.79a2.26,2.26,0,0,0-.22-.37c-.08-.12-.16-.24-.23-.36l-.22-.36-.25-.32-.24-.33-.11-.17-.14-.14a12.24,12.24,0,0,0-2.25-2.18,15,15,0,0,0-2.86-1.74,16.18,16.18,0,0,0-6.72-1.51,17.48,17.48,0,0,0-3.59.35,6.88,6.88,0,0,0-.9.2c-.14,0-.3.06-.44.11l-.44.14-.44.13-.43.16-.43.16a2.56,2.56,0,0,0-.37.17l-.37.15a2.16,2.16,0,0,0-.34.16,5.54,5.54,0,0,1-.64.33,4.21,4.21,0,0,1-.57.36c-.18.12-.33.26-.52.37a10.43,10.43,0,0,0-1.8,1.78,13.53,13.53,0,0,0-1.64,2.67,21.15,21.15,0,0,0-1.38,3.85,30.9,30.9,0,0,0-.85,4.77c-.08.83-.14,1.68-.16,2.49,0,.41,0,.8,0,1.16v.63h0s.15,0-.5,0l-2.72.17c-1.82.12-3.63.25-5.44.4l-1.36.11c20-1.52,5.54-.47,10-.83v-.16l-6.89.62v.09c-1.39.12,3.13-.19-3.12.28l1.36-.11,1.36-.11.4,0h0v-.34l0-.64c0-.46,0-.95,0-1.44,0-1,.09-2,.2-3a38.18,38.18,0,0,1,1-5.82,27.93,27.93,0,0,1,1.83-5.07,20.25,20.25,0,0,1,2.47-4,16.64,16.64,0,0,1,3.05-3c.3-.19.57-.42.87-.62s.63-.38.93-.58.68-.34,1-.52a4.16,4.16,0,0,1,.52-.25l.55-.24c.18-.07.34-.17.54-.24l.6-.22.6-.22.61-.18.61-.19c.2-.07.41-.1.61-.16.42-.1.82-.22,1.24-.28a24.33,24.33,0,0,1,5-.48,23.07,23.07,0,0,1,9.58,2.16,22.62,22.62,0,0,1,4.15,2.52,19.81,19.81,0,0,1,3.38,3.28l.2.22.17.24.35.48.37.48.32.52.33.51a4.66,4.66,0,0,1,.32.53c.19.38.39.74.6,1.11a4.35,4.35,0,0,1,.27.58l.27.6.28.59c.1.2.16.43.24.64.15.42.31.85.48,1.27s.26.91.4,1.36a46.18,46.18,0,0,1,1.7,12.38Z"/><path class="z" d="M236.74,211.78c-9.31-6.24,2.1-18.37,8.17-9.75.63-8.21,10.77-9.32,12.52-1.76,2.58-7.62,13.59-6.53,14.91,1.24,9.25-11.47,18.8,2.54,13.63,7.31,10.38,4.93-.81,15.55-7.74,10.6-.19,8.21-13.46,11.38-15.87,3-1.47,6.81-13.85,5.52-13.29-4.17C240.24,228,231.79,218.92,236.74,211.78Z"/><path class="z" d="M158.2,211.65c-9.2-6.4,2.42-18.33,8.34-9.6.77-8.2,10.93-9.14,12.55-1.55,2.71-7.57,13.7-6.29,14.89,1.5,9.44-11.31,18.75,2.86,13.5,7.54,10.29,5.11-1.09,15.53-7.93,10.47-.33,8.2-13.65,11.15-15.91,2.69-1.59,6.78-13.95,5.28-13.22-4.4C161.43,227.89,153.13,218.7,158.2,211.65Z"/></svg>