<svg xmlns="http://www.w3.org/2000/svg" xmlns:xlink="http://www.w3.org/1999/xlink" width="590.08" height="333.51" viewBox="0 0 590.08 333.51"><defs><style>.a{fill:none;}.b{clip-path:url(#a);}.c{fill:#cff7f9;}.d{clip-path:url(#b);}.e{fill:#c4e8e8;}.f{fill:#9fbbbc;}.g{fill:url(#c);}.h{fill:#fddb5a;}.i{fill:#fff57e;}.j{fill:#f4c645;}.k{fill:#a3d6b6;}.l{fill:#c2ac76;}.m{fill:#8ac299;}.n{fill:#7ccfe1;}.o{fill:#705e45;}.p{fill:#635137;}.q{fill:#60b4c7;}.r,.s{fill:#98e6f5;stroke:#98e6f5;stroke-linecap:round;stroke-linejoin:round;}.r{stroke-width:1.06px;}.s{stroke-width:1.14px;}.t{fill:#62b559;}.u{fill:#ffde26;}.ab,.aw,.u,.x,.y{fill-rule:evenodd;}.v{fill:#f39421;}.w,.x{fill:#419256;}.y{fill:#03843a;}.z{fill:#9e6228;}.aa{fill:#72ad88;}.ab{fill:#e1cca1;}.ac{fill:#cfb685;}.ad{fill:#bd8762;}.ae{fill:#785334;}.af{fill:#634231;}.ag{fill:#78503a;}.ah{fill:#b3cfe6;}.ai{fill:#f4c642;}.aj{fill:#d4ecff;}.ak{fill:#634622;}.al{fill:#646470;}.am{fill:#20242e;}.an{fill:#4d4d57;}.ao{fill:#8a5c43;}.ap{fill:#ba8963;}.aq{fill:#634330;}.ar{fill:#c79c79;}.as{fill:#473219;}.at{fill:#25aaee;}.au{fill:#1480b5;}.av{fill:#224b63;}.aw,.ax{fill:#fff;}.ay{fill:#51453e;}</style><clipPath id="a"><rect class="a" x="-62.69" y="-14.41" width="705.4" height="362.33" rx="81.72"/></clipPath><clipPath id="b"><circle class="a" cx="155.29" cy="36.66" r="17.58"/></clipPath><linearGradient id="c" x1="329.31" y1="-7.81" x2="329.31" y2="344.07" gradientUnits="userSpaceOnUse"><stop offset="0" stop-color="#a3d9ed"/><stop offset="1" stop-color="#defcff"/></linearGradient></defs><title>School</title><g class="b"><circle class="c" cx="155.29" cy="36.66" r="17.58"/><g class="d"><circle class="e" cx="143.48" cy="27.36" r="4.75"/><circle class="e" cx="150.21" cy="21.01" r="2.39"/><circle class="e" cx="163.77" cy="49.22" r="5.22"/><circle class="e" cx="148.99" cy="46.16" r="2.53"/><circle class="e" cx="171.59" cy="37.3" r="3.3"/><circle class="e" cx="139.22" cy="45.21" r="4"/><circle class="e" cx="162.84" cy="22.23" r="6.79"/></g><path class="f" d="M155.32,43.22a8.64,8.64,0,0,1-5.07-1.48,1.14,1.14,0,0,1-.25-1.61,1.16,1.16,0,0,1,1.62-.25,7.34,7.34,0,0,0,7.64-.08,1.16,1.16,0,1,1,1.36,1.87A9.14,9.14,0,0,1,155.32,43.22Z"/><path class="f" d="M163.39,33.22a1.87,1.87,0,1,0,1.87,1.87A1.87,1.87,0,0,0,163.39,33.22Zm-16,0a1.87,1.87,0,1,0,1.87,1.87A1.87,1.87,0,0,0,147.36,33.22Z"/><rect class="g" x="-88.47" y="-7.81" width="835.56" height="351.88"/><path class="h" d="M40.58,8.46c.41,0,5.15,8.86,5.15,8.86s8.55-5.28,8.89-5.1,0,10.25,0,10.25,10.08-.29,10.25,0-5.1,8.89-5.1,8.89,8.89,4.79,8.86,5.15-8.86,5.14-8.86,5.14,5.42,8.39,5.1,8.89-10.25,0-10.25,0,.47,9.83,0,10.24-8.89-5.1-8.89-5.1-4.45,8.87-5.15,8.87-5.14-8.87-5.14-8.87-8.56,5.28-8.89,5.1,0-10.24,0-10.24-10,.43-10.25,0,5.1-8.89,5.1-8.89S12.51,37,12.52,36.53s8.86-5.15,8.86-5.15-5.25-8.48-5.1-8.89,10.25,0,10.25,0-.3-10,0-10.25,8.89,5.1,8.89,5.1S40.18,8.46,40.58,8.46Z"/><circle class="i" cx="40.58" cy="36.53" r="16.17"/><path class="j" d="M40.61,43.08a8.61,8.61,0,0,1-5.06-1.48A1.14,1.14,0,0,1,35.3,40a1.16,1.16,0,0,1,1.62-.25,7.28,7.28,0,0,0,7.63-.08,1.15,1.15,0,0,1,1.35,1.87A9.15,9.15,0,0,1,40.61,43.08Z"/><path class="j" d="M48.67,33.09A1.87,1.87,0,1,0,50.54,35,1.87,1.87,0,0,0,48.67,33.09Zm-16,0A1.87,1.87,0,1,0,34.53,35,1.87,1.87,0,0,0,32.66,33.09Z"/><path class="k" d="M333.65,53.84c-5.73-19.38-30.42-10.49-30,6-6.17-8.34-20.92-4.74-20.13,11.5-2.78-13.78-17.37-17.38-23.05-3.27.79-11.88-12-21.75-21.74-9.13,2.12-16.52-15.11-21.16-20.59-7.23-2.6-19.27-23.15-16.46-24.73-3-.58-6.64-15.83-10-16.49,4.17-3.9-15.17-19.75-12.49-20.5,3.68-3-14.67-24.31-14.49-27.19,2.29.56-8.45-12.54-14.32-16.4-3.15-.29-10.6-13.06-15.52-17.71-3.38C90.8,32.7,66.55,39.94,67.43,57.45c-.2-11-17.34-13.28-18.55,0-4.42-14.72-24.25-11.8-23.32,6C24.58,53.94,12.64,50,8.39,60c1-12.06-15.15-18-18.83-6-2-18.1-24.62-13.37-24.18,1.58C-37,42.59-59.71,45.43-59.71,60.59V269.84H348.41V58.49C348,50.73,338.33,45.87,333.65,53.84Z"/><path class="k" d="M737.77,53.84c-5.73-19.38-30.42-10.49-30,6-6.17-8.34-20.92-4.74-20.14,11.5-2.77-13.78-17.36-17.38-23-3.27.79-11.88-12-21.75-21.74-9.13,2.11-16.52-15.11-21.16-20.59-7.23-2.6-19.27-23.15-16.46-24.73-3-.58-6.64-15.84-10-16.5,4.17-3.89-15.17-19.74-12.49-20.49,3.68-3-14.67-24.31-14.49-27.19,2.29.56-8.45-12.54-14.32-16.4-3.15-.29-10.6-13.06-15.52-17.71-3.38-4.27-19.57-28.52-12.33-27.64,5.18-.2-11-17.35-13.28-18.56,0-4.41-14.72-24.24-11.8-23.31,6-1-9.48-12.92-13.45-17.17-3.38,1-12.06-15.15-18-18.83-6-2-18.1-24.62-13.37-24.18,1.58-2.35-13.06-25.09-10.22-25.09,4.94V269.84H752.53V58.49C752.13,50.73,742.45,45.87,737.77,53.84Z"/><path class="l" d="M360.1,65.23c2.3-16.94,16.89-51,16.79-80.77H278.6c0,1,0,2.07,0,3.07-.95,35.35-18.43,61.92-25.9,85.33-5.1,16-10.29,63.09-9.29,88.15,12.11,0,124.5.5,134.63.5C370.73,146.07,355.29,100.75,360.1,65.23Z"/><path class="l" d="M364.72,37s43.61-19,58.79-45.29h-26s-8.95,11.4-32.79,16.73Z"/><path class="l" d="M237.12,5.9c6.89,4.23,26.49,16.4,39.74,26l-5.54,24.72c-14-11-36.77-30.59-45.34-38a4.67,4.67,0,0,1-.44-6.65A41.19,41.19,0,0,1,232,6.08,4.64,4.64,0,0,1,237.12,5.9Z"/><path class="m" d="M521.35,98.9c-47,1.38-81.1,53.61-142.62,50.86-71.52-3.2-97-49.48-163-49.48-61,0-79.41,45.36-121.91,45.36C44.6,145.64,5.45,67.29-40.41,70c-20.74,1.24-37.25,12.38-52.45,25.89V294.67H756.25V170.38C683.85,184.47,576.14,97.3,521.35,98.9Z"/><path class="m" d="M41.13,132.29a155,155,0,0,0,3.73-35.75c0-1.31-.77-1.69-1-.51a100.23,100.23,0,0,1-4.39,15.25,201.67,201.67,0,0,0-1.34-24.11c-.16-1.29-.93-1.24-1,.07-.61,6.83-1.88,18.93-3.59,24.07,0,0-1.36-13.26-2.93-20.17-.3-1.28-1.12-.58-1,.85.86,10.71-1.8,30.21-3.24,38.81Z"/><path class="n" d="M-8.82,291.68H761S716,182.76,474.19,174.42c0,0-344.81-16.12-509.88,0C-35.69,174.42-53.76,276.43-8.82,291.68Z"/><path class="o" d="M327.32,238.25c1.4.63,2.07.93,3.75-.69s6.12-6.5,7.65-8.46c.87-1.12,1.34-2.41-.05-4.27-1-1.37-14.18-14.93-14.18-14.93-2-2.38-2.17-3.34.68-4.87-1.68,1.25,28.17-15.21,42.6-25.21,1.73-1.2,1.68-2.62,1.12-4.28-.74-2.18-3.76-4.94-4.85-6.48s-1.2-1.9-3.78-1.38c-4.55.91-57.1,20.4-57.1,20.4a2.54,2.54,0,0,1-1.67.13c-5.67-2.11-25-7.76-34.06-8.41-5.84-.41-17,2.11-21.59,3.51s-18.49,5.72-27,5.06-44.36-5.53-50-6.36c-17.13-2.57-14,.87-11.63,5.35,1.73,3.35,2.18,4.43.62,5s-10.64.76-12.75,1.38-4.09,1-1.72,4c1.67,2.16,4.1,4.92,5.24,6.28.79.93.68,1.69-1.79,3.18-5.59,3.38-13.76,7.21-18.61,10-5.17,3-5.12,5.79,1.47,6.82s64.44,3.39,83.34,1.63c16.43-1.54,44.31-13.9,54.2-14.12a24.38,24.38,0,0,1,12.08,2.57C295.94,222.6,323.36,236.48,327.32,238.25Z"/><path class="p" d="M158.41,215.51c-2.08-.4-2-3,.84-3.46,7.18-1.22,39.3-.21,44.78,1.39,2.11.61,2.14,2.65-.44,3.11C195.87,217.91,165.88,217,158.41,215.51ZM256,195.41c2.37-1.1,1.82-3.06-.37-3.12-5.71-.14-15,2-21.62,5.09-2.13,1-1.8,3.26.32,3.19A57.45,57.45,0,0,0,256,195.41Zm61,30.2c2.43,1,3.64-1,2.18-2.65-3.81-4.26-14.57-10.81-21.33-13.49-2.19-.86-3.61.92-2.11,2.42C300.64,216.75,309.73,222.68,317,225.61Z"/><path class="q" d="M327.32,238.25c1.4.63,2.07.93,3.75-.69s6.12-6.5,7.65-8.46c.87-1.12,1.34-2.41-.05-4.27-.46-.6-3.26-3.58-6.26-6.71-14.86,0-30,.08-45.05.1C303.61,226.48,324,236.75,327.32,238.25Z"/><path class="q" d="M129.67,224c6.66,1,64.44,3.39,83.34,1.63,8.11-.76,19-4.16,29.16-7.43-49.49,0-93.14-.16-115.21-.24C123.09,220.66,123.66,223.09,129.67,224Z"/><path class="r" d="M191.64,251.33c-4.89-.35-9.78-.43-14.67-.45s-9.77.09-14.66.45c-1.18.08-2,.72-1.87,1.42s.91,1,1.87,1.11c4.89.35,9.77.43,14.66.44s9.78-.1,14.67-.44c1.17-.09,2-.72,1.87-1.42S192.6,251.39,191.64,251.33Z"/><path class="s" d="M154.73,259.07c-4.33-.34-8.66-.42-13-.44s-8.67.09-13,.44c-1,.09-1.78.72-1.65,1.42a1.69,1.69,0,0,0,1.65,1.11c4.33.36,8.66.44,13,.44s8.66-.09,13-.44c1-.08,1.79-.71,1.67-1.41A1.72,1.72,0,0,0,154.73,259.07Z"/><path class="s" d="M382.61,199.39c-4.33-.34-8.66-.43-13-.44s-8.67.08-13,.44c-1,.09-1.78.72-1.65,1.42a1.69,1.69,0,0,0,1.65,1.11c4.33.36,8.66.44,13,.44s8.66-.1,13-.44c1-.08,1.79-.72,1.66-1.41A1.7,1.7,0,0,0,382.61,199.39Z"/><path class="s" d="M78.27,234.85c4.33-.35,8.66-.43,13-.45s8.67.09,13,.45c1,.08,1.78.72,1.65,1.42a1.71,1.71,0,0,1-1.65,1.11c-4.33.35-8.67.44-13,.44s-8.66-.1-13-.44c-1-.09-1.79-.72-1.67-1.42A1.71,1.71,0,0,1,78.27,234.85Z"/><path class="s" d="M302.83,242.18c4.34-.34,8.67-.43,13-.44s8.66.08,13,.44c1.05.08,1.79.72,1.66,1.42a1.71,1.71,0,0,1-1.66,1.11c-4.33.36-8.66.44-13,.44s-8.66-.1-13-.44c-1-.08-1.78-.72-1.66-1.42A1.7,1.7,0,0,1,302.83,242.18Z"/><path class="s" d="M377.7,217.7c4.33-.34,8.67-.43,13-.44s8.66.08,13,.44c1.05.09,1.79.72,1.66,1.42a1.71,1.71,0,0,1-1.66,1.11c-4.33.36-8.66.44-13,.44s-8.67-.1-13-.44c-1-.08-1.78-.72-1.66-1.41A1.7,1.7,0,0,1,377.7,217.7Z"/><path class="s" d="M85.71,195.73c4.34-.35,8.67-.43,13-.45s8.66.09,13,.45c1,.08,1.79.72,1.66,1.42a1.71,1.71,0,0,1-1.66,1.11c-4.33.35-8.66.43-13,.44s-8.66-.1-13-.44c-1-.09-1.78-.72-1.66-1.42A1.69,1.69,0,0,1,85.71,195.73Z"/><path class="s" d="M55.9,208.28c4.33-.34,8.66-.42,13-.44s8.67.08,13,.44c1,.09,1.78.72,1.65,1.42a1.71,1.71,0,0,1-1.65,1.11c-4.33.36-8.66.44-13,.44s-8.66-.1-13-.44c-1-.08-1.79-.71-1.67-1.41A1.71,1.71,0,0,1,55.9,208.28Z"/><path class="s" d="M229.16,237.47c4.34-.34,8.67-.43,13-.44s8.66.08,13,.44c1,.08,1.79.72,1.66,1.42a1.71,1.71,0,0,1-1.66,1.11c-4.33.36-8.66.44-13,.44s-8.66-.1-13-.44c-1-.08-1.78-.72-1.66-1.42A1.7,1.7,0,0,1,229.16,237.47Z"/><path class="t" d="M466.72,203.66c.5.17,6,1.75,6.6,2s1-.84,1-1.4c.14-56.72,30.51-107.63,38.88-120l-6.88-5.69c-33.71,52.67-41.54,111.24-40.41,123.76A1.48,1.48,0,0,0,466.72,203.66Z"/><path class="u" d="M524.31,95.54c3.3,7.79,7.47,29.37-10.24,28.53-17.4-.81-10.59-24.23-9-28.22-4.24,8.14-15.84,25.25-27.54,11.43-11.05-13,8.53-24.09,14.62-25.77-5.56.13-28.47,10.58-28.83-8.69-.33-17.26,19.46-14.67,28.46-10.95-5.71-2.13-25.59-15.67-11.94-27.55C492,23.73,504.27,44.42,505.8,48.25c-1.86-5.75-8.29-28.91,10.65-28.24,18.28.65,10.29,24.47,8.63,28.92,2.82-4.5,14.81-26.65,27.9-12.12,10.74,11.91-8.7,24.08-14.51,25.95,7.9-2.37,28.61-7.42,28.65,10.3S542.36,84,538.55,81.87c6.75,3.7,24.28,14.47,13,27C539.45,122.36,526.42,100.19,524.31,95.54Z"/><path class="v" d="M501.15,71.93a14.08,14.08,0,1,0,14.18-14A14.07,14.07,0,0,0,501.15,71.93Z"/><path class="t" d="M430.63,222.86c-.5.15-6,1.46-6.68,1.66s-.94-.88-.91-1.44c2.6-56.67-25.27-109-33-121.78L397.15,96c31.13,54.23,36.12,113.12,34.38,125.56A1.47,1.47,0,0,1,430.63,222.86Z"/><path class="u" d="M378.34,112.08c-3.67,7.62-8.88,29,8.86,29,17.41,0,11.74-23.7,10.34-27.75,3.84,8.32,14.59,26,27,12.74,11.66-12.49-7.36-24.47-13.36-26.45,5.54.4,27.92,11.95,29.22-7.28,1.16-17.22-18.73-15.6-27.91-12.32,5.82-1.85,26.32-14.41,13.27-26.93-11.64-11.18-24.88,8.9-26.6,12.65,2.14-5.65,9.68-28.47-9.27-28.72-18.29-.24-11.46,23.94-10,28.46-2.6-4.62-13.5-27.33-27.28-13.45-11.3,11.38,7.53,24.47,13.24,26.62-7.77-2.75-28.22-8.8-29.11,8.9s24.2,12.12,28.1,10.19c-6.92,3.37-24.95,13.28-14.28,26.37C361.93,138.14,376,116.62,378.34,112.08Z"/><path class="v" d="M402.62,89.62A14.08,14.08,0,1,1,389.13,75,14.09,14.09,0,0,1,402.62,89.62Z"/><path class="w" d="M328.14,282.41c-.77-45.69,46.24-53,60-45.69,8.79-40.35,40.89-54.44,67.26-25.28-.76-58.33,49.26-74.35,67.23-31.09,10.32-78,106.71-48.19,94.08,6.89,21.41-28.68,75.73,4.59,51.95,38.79,39-20.91,74.91,21.87,69.18,56.87Z"/><path class="x" d="M101.66,257.25c-.69-4-37.57-4.46-48.48-1.4,10.54-6.75,30.22-27.44,29.93-31.76s-31,2.91-44.69,8.15c17.71-12.65,42.2-42.05,40.19-45.26-1.45-2.32-19.47-3.58-46.45,15.4,12.22-11.06,18.4-27.36,13.29-30.57C42.56,170,15.76,181.15-.82,195.12,11.44,180,28.61,152,25.77,148.76c-1.68-1.94-21.08,7.59-39.68,19.88,4.31-15.73,4.87-52.8.93-55-2.47-1.41-8.88,6.76-14.11,27.77V286.2H61.58C80.16,279.46,102.54,262.31,101.66,257.25Z"/><path class="y" d="M-5,288.32c12.53,1.34,20.59,1.73,35.27,3.31,8.4-57.79,52.24-126.32,67.42-142.8,5.35-5.81,5.48-7.57-2.48-3.89-7.62,3.52-54.41,44.52-80.86,115.22C12.13,181.6-32.42,141.94-44.69,132.43c-4.83-3.74-7-2.56-3.93,2.84s37.49,54,41.06,107.1C-7.56,242.37-7.16,255.72-5,288.32Z"/><path class="y" d="M1,303.38C27,226.47,42,148.43,42.72,77.14l9.45,2.32Q47.82,190,9.81,304.68C9.33,307,1.84,307.24,1,303.38Z"/><ellipse class="z" cx="43.92" cy="115.72" rx="48.6" ry="14.63" transform="translate(-74.56 151.54) rotate(-86.03)"/><path class="y" d="M10.1,338.41c6.46-89.5-.24-177.61-21.18-253.13l9.72-.39q29.1,118.17,20.45,252.35C20,345.64,9.94,344.31,10.1,338.41Z"/><ellipse class="z" cx="1.24" cy="128.79" rx="14.63" ry="48.6" transform="matrix(0.98, -0.21, 0.21, 0.98, -27.01, 3.13)"/><path class="aa" d="M-87.37,251.58c7.33,3.71,19.94,14.31,30.05,23.81a5.51,5.51,0,0,0,3.78,1.48H43.81A5.52,5.52,0,0,0,47.94,275c7.94-8.95,18-18.86,24.66-24,6.37-5,4.07-5.81-1.48-4.81-8.14,1.48-16.5,3.27-34.35,13,5.53-18.25,18.81-31.85,27.32-41.83,3.7-4.35,1.81-4.24-3.06-3.06-13,3.14-29.45,10.44-40.87,33.15-.54-28.1-1.74-38.65-6.54-48.64-2.19-4.56-3.57-1.32-4.9,2.25-6,16.11-4.81,12.56-11.09,35.1-7.75-30.27-21.46-43-33.48-57.42-4.49-5.38-4.64-1.36-3.71,2.66,2.62,11.41,15.26,47.79,16.08,75-6.74-11-21.54-31.68-37.44-38.7-5-2.22-4.28.08-2.37,3.38,3.85,6.6,18.72,27.54,20.85,40.82-11.82-7.22-29.17-12.09-43.63-14.25C-91.85,246.8-90.77,249.86-87.37,251.58Z"/><path class="ab" d="M681.83,292c.42-8.73-10-15.9-22.58-15.9H467.81c-21.55,0-43.28-1.52-64.84-2-128.24-2.7-256.24,6.45-384.55,4.41-74.25-1.18-150.2-5.35-224.33-1.16,0,0,10.8,12.47,55.86,22.9a104.45,104.45,0,0,1,29.54,11.45c8.92,5.28,24.88,11.52,50.83,11.88,0,0,45.41,0,59.31,16.06a71.81,71.81,0,0,0,6.65,3.93H571.46a60.74,60.74,0,0,0,21.46-16.13s10.19-11.56,43.55-14.13C636.47,313.38,680.87,312.08,681.83,292Z"/><path class="ac" d="M72.26,288.85a3.95,3.95,0,0,1-7.9,0c0-2.18,1.81-3.54,4-4C71,284.38,72.26,286.67,72.26,288.85Z"/><path class="ac" d="M45,300c-2.17.2-4.1-.68-4.3-2.86s1.05-3.79,3.57-4.3c2.14-.43,3.43.74,4,2.84C49,298.32,47.12,299.82,45,300Z"/><path class="ac" d="M172.38,296c-2.17.2-4.1-.68-4.3-2.86s1.06-3.79,3.57-4.3c2.14-.43,3.43.74,4,2.84C176.46,294.3,174.56,295.8,172.38,296Z"/><path class="ac" d="M140,324.24c-2.17.2-4.1-.68-4.3-2.85s1-3.8,3.57-4.31c2.14-.43,3.43.74,4,2.84C144.09,322.54,142.19,324,140,324.24Z"/><path class="ac" d="M340.77,325.43c-.73-1.43-.66-3,.77-3.73s2.88-.33,3.92,1.25c.89,1.35.45,2.55-.82,3.55C343.06,327.74,341.51,326.86,340.77,325.43Z"/><path class="ac" d="M312.54,290.05c-1-1.94-.91-4.06,1-5.06s3.92-.44,5.33,1.7c1.2,1.82.6,3.46-1.11,4.81C315.64,293.19,313.54,292,312.54,290.05Z"/><path class="ac" d="M356.64,314.92c-1-1.94-.91-4.05,1-5.06s3.91-.44,5.33,1.7c1.2,1.82.6,3.46-1.12,4.81C359.74,318.06,357.64,316.86,356.64,314.92Z"/><path class="ac" d="M407.9,294.89c-1.66.44-3.26,0-3.7-1.66s.33-3.07,2.22-3.79c1.6-.61,2.75.13,3.49,1.67C410.84,293.05,409.56,294.45,407.9,294.89Z"/><path class="ac" d="M526.65,311.76c-1.5.09-2.8-.56-2.89-2.06a2.67,2.67,0,0,1,2.55-2.88c1.47-.25,2.34.58,2.71,2C529.49,310.68,528.15,311.66,526.65,311.76Z"/><path class="ac" d="M217.64,306.36c-2.18.2-4.1-.69-4.3-2.86s1-3.79,3.57-4.3c2.14-.44,3.43.74,4,2.83C221.71,304.65,219.81,306.15,217.64,306.36Z"/><path class="ad" d="M480.2,298.06c-.85-.21-.23-1.09.31-2.06,3.67-6.53-8.23-12.64-14.5-5.88-.83.89-.86,2.27.1,1.86a3.41,3.41,0,0,1,4.42,1.37c1.13,2.16-2.64,4.28-4.52,4.61-7.84,1.37-14.11,8.07-8.3,13.52.42.39.7,1,0,1-7.87.52-10.94,11.4-2.81,15.41,6.29,3.11,27.52,3.55,34.92-.06,8-3.92,3.42-15-3.17-15.41-.8,0-.52-.54.13-.92C492.68,308.08,487.65,299.82,480.2,298.06Z"/><path class="ae" d="M264.36,262.44s12.54-1.37,18.53,3.87a4,4,0,0,1,1,4.64c-1.11,2.51-4.09,6.83-11.93,13.56l-11-9.88Z"/><path class="af" d="M277,279.9a14.69,14.69,0,0,0-6.05-8.27,12.79,12.79,0,0,0-.22-9.27,41.53,41.53,0,0,0-6.22.06,7.82,7.82,0,0,1,.42,9.12l-1.83,3.09,3.47,1c.05,0,5.14,1.52,5.66,8.7C274.09,282.69,275.67,281.23,277,279.9Z"/><path class="ae" d="M268,291.66a9.81,9.81,0,0,0,.1-17.34c-.25-.14-.5-.27-.76-.39a1.56,1.56,0,0,1-.75-2.05c.12-.26.24-.52.34-.79a9.82,9.82,0,0,0-11.22-13.22c-3.07.64-6.7,2.47-10.84,6.37a27.22,27.22,0,0,0-3.07,3.45,15.74,15.74,0,0,0-3.27,8c-.24,2.41.1,5.1,2.16,6.79-.49,2.63,1,4.9,2.71,6.59a15.78,15.78,0,0,0,7.63,4,28.46,28.46,0,0,0,4.57.67C261.27,294.07,265.23,293.14,268,291.66Z"/><path class="af" d="M258.65,293.79a25,25,0,0,0,5.55-.7,12.63,12.63,0,0,0-.89-4.61c-2.12-5.39-7.61-9-11-10.82,3.95-8,2.27-14.41-.44-18.44a24.84,24.84,0,0,0-4.64,3c1.84,2.62,3.64,7.7-1.1,15.22l-1.77,2.82,3.11,1.21c2.35.92,8.88,4.33,10.73,9.05A7,7,0,0,1,258.65,293.79Z"/><path class="ae" d="M255.6,284.78c6.61,4.84,5.14,15.4-2.48,17.89-3,1-7.05,1.16-12.62-.24a33.36,33.36,0,0,1-7.47-3S223.47,292.14,229,286c-8.16-1.2-5.49-12.9-5.49-12.9a32.6,32.6,0,0,1,3.78-7.12c3.36-4.66,6.61-7.13,9.51-8.3,7.44-3,15.21,4.13,13.4,12.12a27.08,27.08,0,0,1-2.94,8.72,1.3,1.3,0,0,0,.68,1.84A33,33,0,0,1,255.6,284.78Z"/><path class="af" d="M247.85,303.44a12.92,12.92,0,0,0-3.51-7.31,11.79,11.79,0,0,0-3.75-2.52,11,11,0,0,0,1.24-2.26,13.65,13.65,0,0,0-.3-9.8,13.08,13.08,0,0,0-8.42-8.27,13.65,13.65,0,0,0-.66-13,27.12,27.12,0,0,0-4.06,4.18c1.15,3.08.54,6-1.87,9l-3.47,4.27v.1l5.55.11c.06,0,6,.18,7.76,5.51l0,.13,0,.12a8.39,8.39,0,0,1,.26,5.64,6.22,6.22,0,0,1-3.73,3.34l-4.39,1.8a18.07,18.07,0,0,0,3,3.7l2.66-.22s3.84-.28,6.2,2.11a6.75,6.75,0,0,1,1.59,2.74A27.84,27.84,0,0,0,247.85,303.44Z"/><path class="ae" d="M243.76,307.78s2.83-9.56-9.43-12.11a.5.5,0,0,1-.12-.95c1.53-.78,3.53-2.53,4.36-6.49a9.66,9.66,0,0,0-3.48-9.58c-3.19-2.5-5.85-2.56-7.52-2.17a.5.5,0,0,1-.51-.8c7.75-9.83-.56-15.35-.56-15.35-12.13-7.89-25.8,12.24-25.8,12.24-8,15.79.37,23.88.37,23.88s-1.26,11.61,15.06,18.53C216.13,315,239.53,321.62,243.76,307.78Z"/><path class="af" d="M225.16,316.47c.78-3.85.31-7.18-1.43-9.92a12.27,12.27,0,0,0-4.26-4,12.21,12.21,0,0,0,3.16-13.28c-2.55-7-7.5-8.89-11.46-9.23a11.8,11.8,0,0,0,.55-6.47,14.45,14.45,0,0,0-5.07-7.91,49.18,49.18,0,0,0-3.74,4.05,9.08,9.08,0,0,1,3.41,5c.42,2.08-.35,4.38-2.29,6.82l-5.52,7,8.5-2.63a10.52,10.52,0,0,1,4.44-.23c2.87.51,4.84,2.34,6,5.59l0,.07a7.45,7.45,0,0,1,.28,3.46c-.4,2.59-2.29,4.61-5.61,6l-9,3.75.28.47,9.48,1.06s4.29.55,6.17,3.53c1,1.58,1.2,3.69.6,6.28A48.57,48.57,0,0,0,225.16,316.47Z"/><path class="ae" d="M221.18,316s2.83-9.59-9.5-12.12a.46.46,0,0,1-.08-.89c2.47-.89,6.48-3.06,7.32-7.94a9.68,9.68,0,0,0-3.27-9c-3.77-3.19-8.25-2.28-10.71-1.38a.46.46,0,0,1-.51-.73c7.83-9.86-.51-15.39-.51-15.39-12.14-7.89-25.8,12.23-25.8,12.23-8.06,15.79.37,23.88.37,23.88s-1.26,11.61,15.06,18.53C193.55,323.19,217,329.84,221.18,316Z"/><path class="af" d="M200,320.91a10.65,10.65,0,0,1-2.8,3.1,48.21,48.21,0,0,0,6.85.75,9.86,9.86,0,0,0,.84-1.33c2.47-4.69,2.78-9.1.93-13.11-2.71-5.9-9.57-9.23-13.9-10.81a33,33,0,0,0,3.92-9.08,15.71,15.71,0,0,0-.94-10.52,14.17,14.17,0,0,0-9.1-7.66,45.24,45.24,0,0,0-4.7,4.72c2.67.15,6.84,1.1,8.82,5.29a10.2,10.2,0,0,1,.58,6.83,28.62,28.62,0,0,1-5.16,10.28,2.75,2.75,0,0,0,1.58,4.35c3.05.7,11.49,3.66,13.9,8.9C202,315,201.69,317.73,200,320.91Z"/><path class="ae" d="M201.05,310.33c-4.47-6.3-13.34-8.28-15.29-8.65,1.26-1.53,6.78-8.75,6.16-16.45a9.94,9.94,0,0,0-16.2-6.94c-2.39,2-4.73,5.34-6.54,10.74a32.45,32.45,0,0,0-1.47,7.81A26.93,26.93,0,0,0,181.19,322c4.85,3,8.78,4,11.91,4C201.11,326.05,205.69,316.86,201.05,310.33Z"/><path class="af" d="M184.06,298c-6.59-.81-12.14.37-16.3,3.42a25,25,0,0,0,.76,4.14c8-7.69,22.09-2.49,25.12-1.25a32.31,32.31,0,0,0-7.88-2.65,29.43,29.43,0,0,0,2.13-3C186.7,298.42,185.41,298.19,184.06,298Z"/><path class="ag" d="M513.07,63.79a1.57,1.57,0,0,1-1.39-1.66c0-1.08-.63-10.72,2.24-15A1.73,1.73,0,0,1,516.79,49c-1.92,2.87-2.41,10.34-2.33,13a1.61,1.61,0,0,1-1.34,1.78Z"/><path class="ag" d="M502,62.52a1.17,1.17,0,0,1-.51-.11c-.75-.33-.8-1.41-.53-2.31,3.08-10.53,9.31-13.25,9.55-13.35a1.73,1.73,0,0,1,1.3,3.2,7.77,7.77,0,0,0-.9.48,14.42,14.42,0,0,0-4.16,4,30.66,30.66,0,0,0-3.49,7.19A1.35,1.35,0,0,1,502,62.52Z"/><path class="ag" d="M526.4,62.52a1.17,1.17,0,0,0,.51-.11c.75-.33.8-1.41.53-2.31-3.08-10.53-9.31-13.25-9.55-13.35a1.73,1.73,0,0,0-1.3,3.2l.09,0a12,12,0,0,1,4,3.21,22.33,22.33,0,0,1,3.91,7.46C524.86,61.42,525.46,62.52,526.4,62.52Z"/><path class="ah" d="M519.55,38.87c-.27-3.18-2.06-11.33-12.49-21.29a22.29,22.29,0,0,0-4.46-3c-1-.5-2.76-1.23-3.56,0-.57.87-.93,2.8,1.59,6.75a4,4,0,0,0-3.4.45c-1.36,1-2.14,3.14,2.24,7.85,4.17,4.5,12.69,8.28,19.16,9.88a.72.72,0,0,0,.35.06c.27,0,.48-.13.5-.34A.52.52,0,0,0,519.55,38.87Z"/><path class="ag" d="M534,30.33a1.49,1.49,0,0,1-1.67-1.27c-.63-5.28,3.5-9.23,8.53-9.5.66,0,1.76.07,1.76,1,0,.76-1.71.7-2.64,1A7.67,7.67,0,0,0,535.22,26a5.82,5.82,0,0,0-.35,2.58C534.91,29.33,534.91,30.22,534,30.33Z"/><path class="ag" d="M538.55,33.06a1.48,1.48,0,0,1-1.35-1.6c.56-5.29,5.45-8.23,10.42-7.39.64.11,1.69.47,1.49,1.36s-1.82.31-2.8.44a7.69,7.69,0,0,0-5.61,3.25,5.86,5.86,0,0,0-.9,2.45C539.67,32.29,539.47,33.16,538.55,33.06Z"/><path class="ag" d="M496,44.15s-6.75,1-7.13,3.46c0,0,0,2,7.5.17Z"/><path class="ai" d="M530.5,36.35s-29.12-8.9-36.38,6a6.69,6.69,0,0,0-.66,3.32v.08a6.83,6.83,0,0,0,3,5.23c4,2.77,13.67,5.3,34.6-5.11Z"/><path class="ag" d="M521.82,49.94q-2.88,1.08-5.38,1.79c-.84-1.86-3.12-7.93-2.85-18a56.73,56.73,0,0,1,5.82.41A71.14,71.14,0,0,0,521.82,49.94Z"/><path class="ag" d="M508.59,33.93c-.2,3.17-.13,9.78,2.43,19a31.72,31.72,0,0,1-6.14.45c-.84-2.33-2.56-8.42-2.18-18.23A26.93,26.93,0,0,1,508.59,33.93Z"/><path class="ag" d="M493.46,45.69a6.69,6.69,0,0,1,.66-3.32,13.18,13.18,0,0,1,4.2-5c-.42,2.24-.62,6.89,1.59,15.23a12.86,12.86,0,0,1-3.5-1.64,6.83,6.83,0,0,1-3-5.23Z"/><path class="aj" d="M517.09,37.3c-1-3-4.7-10.51-17.2-17.71a22.65,22.65,0,0,0-5.05-1.85c-1.09-.24-3-.53-3.45.83-.36,1-.24,2.94,3.14,6.18a4.06,4.06,0,0,0-3.2,1.25c-1.08,1.27-1.32,3.55,4.05,7.09,5.12,3.38,14.29,5,21,5a.59.59,0,0,0,.35,0c.26-.07.44-.24.41-.45A.63.63,0,0,0,517.09,37.3Z"/><path class="ai" d="M524.6,42.53c.89,4.66,3.12,8.57,8.49,8.47s13.88-4.78,13.79-9.53S540.14,29,533.5,29.08C523.56,29.13,523.66,37.61,524.6,42.53Z"/><circle class="ak" cx="534.67" cy="39.44" r="2.89"/><path class="ak" d="M544,46.49a4.19,4.19,0,0,1-3-1.69.81.81,0,0,0-1.13-.1.79.79,0,0,0-.1,1.12,6.31,6.31,0,0,0,2.66,2A15.92,15.92,0,0,0,544,46.49Z"/><path class="al" d="M354.3,316c-.44,0-1-.17-1.17-.6-.31-1,1.05-2.38,1.74-2.9a17.65,17.65,0,0,0,2.53-2.28,31.65,31.65,0,0,0,3.08-3.75,18,18,0,0,0,2.88-6.13c.39-1.65.62-3.9-.22-5.49a1.73,1.73,0,0,1,3.06-1.6,2.59,2.59,0,0,1,.17.38,12.75,12.75,0,0,1,.49,8,22.86,22.86,0,0,1-3.51,7.12C361.24,311.74,357.68,316,354.3,316Z"/><path class="al" d="M332.76,313.81a1,1,0,0,1-.73-1.09c.23-1,2.07-1.56,2.93-1.68a18.37,18.37,0,0,0,3.32-.76,33,33,0,0,0,4.51-1.78,18.27,18.27,0,0,0,5.5-3.95c1.15-1.26,2.44-3.11,2.48-4.91a1.73,1.73,0,0,1,3.45.09c0,.14,0,.28,0,.42a12.71,12.71,0,0,1-3.75,7.11,22.37,22.37,0,0,1-6.53,4.51C340.63,313.34,336.4,314.72,332.76,313.81Z"/><path class="al" d="M382.2,300s-.45,12.08,11.13,14.85c0,0,2.61.86,1.37-1.79,0,0,8.39,5,5.64,0,0,.06.46.05.52.05a10.26,10.26,0,0,0,1.24,0,3.31,3.31,0,0,0,2.46-.76c1.1-1.41-2.05-1.64-2.69-1.7s-1.3-.08-1.95-.08c0,0-13.65-.31-14-8.64v-3Z"/><path class="al" d="M390.62,280.76s6.41,0,10.35,3.29a36,36,0,0,1,7.4,8s1.75,2.53,4.18,2.61c0,0,.79,0,1.07.33,0,0,.86,1-.58,2.55a16,16,0,0,0,1.93.13.9.9,0,0,1,.84,1.38s-1.26,5.13-25.19,5.05Z"/><circle class="am" cx="398.08" cy="292.5" r="2.89"/><path class="am" d="M406.57,302.42a4.26,4.26,0,0,1-2.19-2.71.8.8,0,0,0-1.52.48,6.25,6.25,0,0,0,2.1,3.16,31.23,31.23,0,0,0,3.51-.64A3.6,3.6,0,0,1,406.57,302.42Z"/><path class="al" d="M384.88,272.91h.33a22.2,22.2,0,0,0-5.75-2.18A104.81,104.81,0,0,0,366,269.56h0c-11.82-.28-27.52,1.47-30,12.29,0,0-4.66,15.31,1.07,17.84h0l.09,0,.1,0s1.25,3.31,35.31,4.24c0,0,5.49.17,12.33.15Z"/><path class="an" d="M366,288.67H334.52a30.64,30.64,0,0,0-.32,3.95H366Z"/><path class="an" d="M338.39,277a11.34,11.34,0,0,0-2.15,3.94H366V277Z"/><path class="an" d="M372.55,304s8.93.28,18.2.09V280.38c0-.91-.54-7-11.29-9.65A104.81,104.81,0,0,0,366,269.56v34.22C368,303.87,370.21,303.94,372.55,304Z"/><path class="ao" d="M214.32,187.9a.9.9,0,0,1-.79-.19c-.87-.65,0-1.71.35-2.34a15.39,15.39,0,0,0,.76-1.52c.43-.95.8-1.92,1.18-2.89a60.9,60.9,0,0,0,2.15-6.58,1.36,1.36,0,0,1,1.66-.94,1.33,1.33,0,0,1,1,1.63,43.37,43.37,0,0,1-2.57,7.66C217.59,183.6,215.89,187.57,214.32,187.9Z"/><path class="ao" d="M203.32,187c-1-.76.17-1.81,1.37-2.45a15.09,15.09,0,0,0,4.44-4.14,20.93,20.93,0,0,0,3.27-7.07,1.35,1.35,0,0,1,1.66-.93A1.32,1.32,0,0,1,215,174a26.9,26.9,0,0,1-1.46,4.09,17.43,17.43,0,0,1-5,6.73C207.27,185.8,204.68,188,203.32,187Z"/><path class="ao" d="M232.8,187.15a6.92,6.92,0,0,1-3.4-.93c-3.1-1.72-5.43-5.61-6.93-11.56a1.34,1.34,0,0,1,1-1.62,1.36,1.36,0,0,1,1.63,1,21.84,21.84,0,0,0,3.26,7.67,8.27,8.27,0,0,0,1.63,1.71,12,12,0,0,0,3.65,1.71c.59.2,1.43.74,1,1.49C234.38,187.16,233.34,187.15,232.8,187.15Z"/><path class="ap" d="M223.81,167.51s-1.33-7.3-13.82-13.81c0,0-3.43-1.56-5.47-1.3a1.22,1.22,0,0,0-1.05,1C203.15,155,204.86,159.37,223.81,167.51Z"/><path class="ao" d="M199.62,177.64c1.68,1.78,8.46.48,16.66-3.25s8.47-5.86,7.6-7.93-2.57-3.3-10.76.43S197.94,175.87,199.62,177.64Z"/><path class="aq" d="M204.89,178.19a50.77,50.77,0,0,1-2.12-5.27c-2.62,2-4,3.82-3.15,4.72S202.28,178.63,204.89,178.19Z"/><path class="aq" d="M208.35,177.38a51,51,0,0,0,5.63-2,49.37,49.37,0,0,1-2.94-7.5c-1.85.92-3.59,1.9-5.15,2.88A53.82,53.82,0,0,0,208.35,177.38Z"/><path class="aq" d="M227.4,171.32c.14,3.3-2.93,5.12-6.25,5.2-5.16.12-8.06-6.56-7.21-9.69,1.06-4,5.41-3.8,7.6-3.24,4,1,5.14,3.78,5.76,6.85A5.52,5.52,0,0,1,227.4,171.32Z"/><path class="ao" d="M240.33,181.64a2.58,2.58,0,0,1-.86-.66c-2.73-3-6.19-6.33-9.13-9.09-.52-.48.16-1.43.44-1.93s.93-.51,1.45,0a50.58,50.58,0,0,1,7.09,8.27,20.76,20.76,0,0,1,1.34,2.1C241.25,181.43,241,181.9,240.33,181.64Z"/><path class="ao" d="M234.46,165.8c2.38,3.07,2.35,6.24-.22,8.54-2.9,2.6-7.2,1.64-9.58-1.43C219.88,166.74,229.92,160,234.46,165.8Z"/><path class="ar" d="M222.53,166.79c-1.4-2.2-5.76-7.42-17.11-10.74,0,0-4.14-1-6.21-.18a1.2,1.2,0,0,0-.77,1c-.18,1.66,1.79,6,23.52,10.72A.52.52,0,0,0,222.53,166.79Z"/><ellipse class="as" cx="229.74" cy="169.66" rx="2.15" ry="2.13"/><path class="aj" d="M259.27,64.22c8.32-5.09,49.44-29.6,62.64-25.6a4.63,4.63,0,0,1,2.94,6.52c-3.54,7-18,27.06-65.31,20.25A.63.63,0,0,1,259.27,64.22Z"/><path class="aj" d="M259.16,64.4c9.34,1.31,55.2,8.32,64.07,20.32,1.93,2.61,1.54,6-.79,7.3-6.34,3.38-28.14,10.33-63.63-26.48C258.34,65.05,258.57,64.31,259.16,64.4Z"/><path class="aj" d="M258.46,64.22c-8.32-5.09-49.44-29.6-62.64-25.6a4.63,4.63,0,0,0-2.94,6.52c3.54,7,18,27.06,65.31,20.25A.63.63,0,0,0,258.46,64.22Z"/><path class="aj" d="M258.56,64.4c-9.34,1.31-55.19,8.32-64.06,20.32-1.94,2.61-1.54,6,.79,7.3,6.33,3.38,28.14,10.33,63.63-26.48C259.38,65.05,259.15,64.31,258.56,64.4Z"/><path class="at" d="M251.46,67.55h-.09c-12.35-.61-19.54-4.46-19.84-4.63-.66-.36-1.29-1.5-.72-2.14,1.15-1.29,6.25.84,7.82,1.31a55.4,55.4,0,0,0,12.91,2.14,1.67,1.67,0,0,1-.08,3.33Z"/><path class="at" d="M242.26,72.74a40.16,40.16,0,0,1-11.06-1.37A1.69,1.69,0,0,1,230,69.78c0-.89.8-1.14,1.6-1.17a47.26,47.26,0,0,1,5,.45c1.93.16,3.87.33,5.81.34a45.89,45.89,0,0,0,8.6-.81,1.67,1.67,0,1,1,.63,3.27A51.21,51.21,0,0,1,242.26,72.74Z"/><path class="at" d="M234.72,79.68c-.92-.07-1.83-.32-1.81-1.47s1.76-1.4,2.64-1.49c1.56-.16,3.06-.43,4.61-.68a62.36,62.36,0,0,0,11.1-2.93,1.69,1.69,0,0,1,2.16,1,1.65,1.65,0,0,1-1,2.13l-1.77.62a59,59,0,0,1-10,2.52,30.12,30.12,0,0,1-5.11.33Z"/><path class="at" d="M265.16,67.55h.08c12.35-.61,19.54-4.46,19.84-4.63.66-.36,1.29-1.5.72-2.14-1.14-1.29-6.24.84-7.81,1.31a55.39,55.39,0,0,1-12.92,2.14,1.67,1.67,0,0,0,.09,3.33Z"/><path class="at" d="M274.35,72.74a40.07,40.07,0,0,0,11.06-1.37,1.68,1.68,0,0,0,1.18-1.59c0-.89-.81-1.14-1.61-1.17a47.08,47.08,0,0,0-5,.45c-1.94.16-3.88.33-5.82.34a46,46,0,0,1-8.6-.81,1.69,1.69,0,0,0-2,1.32,1.67,1.67,0,0,0,1.34,2A51.29,51.29,0,0,0,274.35,72.74Z"/><path class="at" d="M281.89,79.68c.92-.07,1.83-.32,1.81-1.47s-1.76-1.4-2.64-1.49c-1.56-.16-3.05-.43-4.61-.68a62.59,62.59,0,0,1-11.1-2.93,1.69,1.69,0,0,0-2.16,1,1.65,1.65,0,0,0,1,2.13l1.76.62a59.2,59.2,0,0,0,10,2.52,30.19,30.19,0,0,0,5.11.33Z"/><path class="at" d="M259.19,54.88s-10.73-.77-9.54,14.24a14.25,14.25,0,0,0,3.57,11.51s-2,55.47,6,57.14c0,0,6-3.7,4-58,0,0,3.57-2.91,4.77-12.08C267.94,67.65,267.32,56,259.19,54.88Z"/><path class="au" d="M258,55.74S246.28,55.6,248,70.55c0,0,.2,8.32,4.56,12.35,1.7,1.55,5.15,1.67,7.35,1.55a7.49,7.49,0,0,0,6.1-4,34.15,34.15,0,0,0,2.72-12.21S269,55.81,258,55.74Z"/><path class="au" d="M254.29,123.92c.2,1.62.42,3.15.67,4.57l7.08,0c.2-1.34.39-2.87.57-4.61C259.77,123.88,257,123.9,254.29,123.92Z"/><path class="au" d="M253,92.2q5.5,0,10.51,0c0-1.47-.05-3-.09-4.55-3.59,0-7.05,0-10.37,0C253,89,253,90.56,253,92.2Z"/><path class="au" d="M256,132.94c.64,2.15,1.42,3.7,2.36,4.42a3.89,3.89,0,0,0,.94.33c.25-.25,1.06-1.28,1.92-4.82Z"/><path class="au" d="M263.57,96.74c-3.65,0-7.18,0-10.57,0,0,1.47,0,3,0,4.54,3.68,0,7.2,0,10.54,0C263.58,99.85,263.58,98.32,263.57,96.74Z"/><path class="au" d="M253.13,105.82c0,1.51.09,3,.15,4.55q5.34,0,10.16,0c0-1.45.07-3,.1-4.58C260,105.81,256.49,105.82,253.13,105.82Z"/><path class="au" d="M253.51,114.88c.1,1.55.2,3.07.33,4.56q4.82,0,9.15,0c.1-1.43.2-3,.27-4.6C259.92,114.84,256.67,114.87,253.51,114.88Z"/><path class="at" d="M257.05,61.15c-8.72-.13-15-3.16-14.76-8.5.42-8.84,7.33-15.91,16-15.78a15.82,15.82,0,0,1,15.53,16.25C273.69,59.88,265.77,61.28,257.05,61.15Z"/><ellipse class="av" cx="263.89" cy="46.99" rx="2.81" ry="2.79"/><ellipse class="av" cx="252.64" cy="46.99" rx="2.81" ry="2.79"/><path class="av" d="M258.25,56.38a5.67,5.67,0,0,1-4.12-2,.76.76,0,0,1,.05-1.09.79.79,0,0,1,1.1.06,4.17,4.17,0,0,0,3,1.51,3.78,3.78,0,0,0,2.8-1.44.79.79,0,0,1,1.1-.08.77.77,0,0,1,.08,1.09,5.33,5.33,0,0,1-4,2Z"/><path class="aw" d="M297.58,101.49,281.9,96.11a1.65,1.65,0,0,0-2.29,1.69l-.15,15.14Z"/><rect class="ax" x="310.58" y="100.68" width="76.02" height="39.39"/><path class="aw" d="M291.54,101.79c-11,1.78-18.77,6.43-18.77,18.59s7.78,16.81,18.77,18.59c6.57,1.07,14.3,1.1,22.19,1.1V100.68C305.84,100.68,298.11,100.72,291.54,101.79Z"/><path class="aw" d="M403.2,101.79c11,1.78,18.76,6.43,18.76,18.59S414.18,137.19,403.2,139c-6.58,1.07-14.3,1.1-22.19,1.1V100.68C388.9,100.68,396.62,100.72,403.2,101.79Z"/><path class="ay" d="M306.18,126.13h-.05a3.85,3.85,0,0,1-3.77,1.94c-3.83,0-6-3.48-6-7.23s2.21-7.23,6-7.23a4.61,4.61,0,0,1,3.77,1.92h.05v-6.89a1.17,1.17,0,1,1,2.34,0v18.18a1.17,1.17,0,1,1-2.34,0Zm-3.64-10.5c-2.87,0-3.88,2.82-3.88,5.21s1,5.21,3.88,5.21,3.88-2.81,3.88-5.21S305.41,115.63,302.54,115.63Z"/><path class="ay" d="M311.71,114.86a1.17,1.17,0,1,1,2.34,0v1.2h.05c.53-1.09,1.83-2.45,3.19-2.45a1.19,1.19,0,0,1,1.3,1.2c0,.66-.48,1.09-1.46,1.28a3.67,3.67,0,0,0-3.08,4v6.72a1.17,1.17,0,1,1-2.34,0Z"/><path class="ay" d="M331.77,126.93a1.09,1.09,0,1,1-2.18,0v-1h0a4.58,4.58,0,0,1-3.85,2.12c-4,0-6.22-3.48-6.22-7.23s2.23-7.23,6.22-7.23a4.92,4.92,0,0,1,3.85,1.89h0v-.74a1.09,1.09,0,1,1,2.18,0Zm-6.08-.88c2.87,0,3.88-2.81,3.88-5.21s-1-5.21-3.88-5.21-3.88,2.82-3.88,5.21S322.82,126.05,325.69,126.05Z"/><path class="ay" d="M346.44,126.9c0,4.2-2.55,6.76-6.38,6.76-2.42,0-5.42-1.39-5.42-2.58a1,1,0,0,1,1-1.09c1.07,0,2.1,1.65,4.63,1.65,3,0,3.85-2.34,3.85-4.36v-1.23h-.05a4,4,0,0,1-3.59,2c-4,0-6.22-3.48-6.22-7.23s2.23-7.23,6.22-7.23a4.78,4.78,0,0,1,3.59,1.78h.05v-.63a1.12,1.12,0,0,1,1.25-1.15,1.09,1.09,0,0,1,1.09,1.15Zm-6-.85c2.87,0,3.88-2.81,3.88-5.21s-1-5.21-3.88-5.21-3.88,2.82-3.88,5.21S337.59,126.05,340.46,126.05Z"/><path class="ay" d="M355.24,113.61c4,0,6.22,3.49,6.22,7.23s-2.24,7.23-6.22,7.23-6.22-3.48-6.22-7.23S351.25,113.61,355.24,113.61Zm0,12.44c2.87,0,3.88-2.81,3.88-5.21s-1-5.21-3.88-5.21-3.88,2.82-3.88,5.21S352.37,126.05,355.24,126.05Z"/><path class="ay" d="M363.93,114.86a1.17,1.17,0,1,1,2.33,0v.56l.06,0a4.85,4.85,0,0,1,3.9-1.86c2.18,0,4.92,1.39,4.92,5.37v7.84a1.17,1.17,0,1,1-2.34,0v-7.7a3.28,3.28,0,1,0-6.54,0v7.7a1.17,1.17,0,1,1-2.33,0Z"/><path class="ay" d="M381.31,126.82a1.17,1.17,0,1,1-2.34,0v-11h-1c-.77,0-1.17-.37-1.17-1s.4-1,1.17-1h1v-3.32a2.89,2.89,0,0,1,3.11-3.06h.71c.62,0,1.33.38,1.33,1s-.4,1-1.27,1h-.59c-.72,0-.95.35-.95.93v3.43h1.46c.77,0,1.17.38,1.17,1s-.4,1-1.17,1h-1.46Zm6.14,0a1.17,1.17,0,1,1-2.34,0V108.64a1.17,1.17,0,1,1,2.34,0Z"/><path class="ay" d="M389.76,115.9a4,4,0,0,1-.32-1.3,1,1,0,0,1,1.06-1,1.22,1.22,0,0,1,1.17.88l3.24,9.7h0l3.19-9.7a1.16,1.16,0,0,1,1.12-.88,1,1,0,0,1,1.06,1,4.19,4.19,0,0,1-.31,1.3l-5.91,16.88a1.19,1.19,0,0,1-1.14.88,1,1,0,0,1-1.06-1,3.75,3.75,0,0,1,.34-1.3l1.49-4Z"/></g></svg>